<?xml version="1.0" ?><!DOCTYPE svg  PUBLIC '-//W3C//DTD SVG 1.1//EN'  'http://www.w3.org/Graphics/SVG/1.1/DTD/svg11.dtd'><svg height="504px" style="enable-background:new 0 0 504 504;" version="1.1" viewBox="0 0 504 504" width="504px" xml:space="preserve" xmlns="http://www.w3.org/2000/svg" xmlns:xlink="http://www.w3.org/1999/xlink"><style type="text/css">
<![CDATA[
	.st0{fill-rule:evenodd;clip-rule:evenodd;}
	.st1{fill:none;}
	.st2{fill:none;stroke:#000000;stroke-width:1.039;stroke-miterlimit:3.8637;}
	.st3{fill:#F5A01A;stroke:#000000;stroke-width:2.7415;stroke-linecap:round;stroke-linejoin:round;stroke-miterlimit:3.8637;}
	.st4{fill:#808285;stroke:#000000;stroke-width:2.7415;stroke-linecap:round;stroke-linejoin:round;stroke-miterlimit:3.8637;}
]]>
</style><defs/><path d="M492.9,182.4c-6.6,13.8-7.5,23.1-7.5,37.1c0,9.2-3.4,17.4-8.8,22.9c-12.1,12.1-31.6,12.1-43.7,0  c-12.1-12.1-12.1-31.6,0-43.7c5.4-5.4,13.6-8.8,22.9-8.8C469.9,190,479.2,189,492.9,182.4L492.9,182.4z M190.2,485.1  C209,443.2,297.1,342.4,331.5,308c4.1-4.1,8.3-8.1,12.6-12l35.3,35.3c-3.9,4.3-7.9,8.4-12,12.6C333,378.3,232.1,466.4,190.2,485.1  L190.2,485.1z M387.1,322.6l-34.4-34.4c21.4-18.4,44.2-34.1,68.2-47.1l13.2,13.2C421.2,278.4,405.5,301.2,387.1,322.6L387.1,322.6z   M115,297.6c0,17.6,9.4,31.9,21,31.9c11.6,0,21-14.3,21-31.9c0-17.6-9.4-31.9-21-31.9C124.4,265.7,115,280,115,297.6L115,297.6z   M141.3,71.4c0,15.6,12.7,28.3,28.3,28.3c15.6,0,28.3-12.7,28.3-28.3c0-15.6-12.7-28.3-28.3-28.3C153.9,43.1,141.3,55.8,141.3,71.4  L141.3,71.4z M255.7,185.8c0,15.6,12.7,28.3,28.3,28.3c15.6,0,28.3-12.7,28.3-28.3c0-15.6-12.7-28.3-28.3-28.3  C268.4,157.5,255.7,170.2,255.7,185.8L255.7,185.8z M230.1,125.2c11.1,11.1,29,11.1,40,0c11-11.1,11-29,0-40c-11-11.1-29-11.1-40,0  C219,96.2,219,114.2,230.1,125.2L230.1,125.2z M270.3,287.1c11.1-11.1,11.1-29,0-40c-11.1-11.1-29-11.1-40,0c-11,11.1-11,29,0,40  C241.3,298.2,259.2,298.2,270.3,287.1L270.3,287.1z M108.4,125.2c11.1-11.1,11.1-29,0-40c-11.1-11.1-29-11.1-40,0  c-11.1,11.1-11.1,29,0,40C79.4,136.3,97.3,136.3,108.4,125.2L108.4,125.2z M98.4,250.7c2.8-4.3,5.3-12.2,5.3-19.2  c0-19.4-15.2-35.5-34.3-37.2c-32.7-5.7-57.5-34.2-57.5-68.6c0-18.6,7.1-35.4,19-47.9c31.9-36.3,78.7-59.2,130.8-59.2  c96.1,0,174.1,77.9,174.1,174.1c0,96-77.9,173.8-173.7,174.1l-9.5-0.3c-38.5,0-69.6-31.2-69.6-69.6  C83.1,282.4,87.9,266.5,98.4,250.7L98.4,250.7z"/><rect class="st1" height="504" id="_x3C_Slice_x3E__29_" width="504"/></svg>