<?xml version="1.0" encoding="UTF-8" standalone="no"?>
<svg
   xmlns:dc="http://purl.org/dc/elements/1.1/"
   xmlns:cc="http://creativecommons.org/ns#"
   xmlns:rdf="http://www.w3.org/1999/02/22-rdf-syntax-ns#"
   xmlns:svg="http://www.w3.org/2000/svg"
   xmlns="http://www.w3.org/2000/svg"
   xmlns:sodipodi="http://sodipodi.sourceforge.net/DTD/sodipodi-0.dtd"
   xmlns:inkscape="http://www.inkscape.org/namespaces/inkscape"
   height="504px"
   style="enable-background:new 0 0 504 504;"
   version="1.1"
   viewBox="0 0 504 504"
   width="504px"
   xml:space="preserve"
   id="svg989"
   sodipodi:docname="arts_and_crafts.svg"
   inkscape:version="1.0.1 (c497b03c, 2020-09-10)"><metadata
     id="metadata993"><rdf:RDF><cc:Work
         rdf:about=""><dc:format>image/svg+xml</dc:format><dc:type
           rdf:resource="http://purl.org/dc/dcmitype/StillImage" /></cc:Work></rdf:RDF></metadata><sodipodi:namedview
     pagecolor="#ffffff"
     bordercolor="#666666"
     borderopacity="1"
     objecttolerance="10"
     gridtolerance="10"
     guidetolerance="10"
     inkscape:pageopacity="0"
     inkscape:pageshadow="2"
     inkscape:window-width="1805"
     inkscape:window-height="1000"
     id="namedview991"
     showgrid="false"
     inkscape:zoom="1.7638889"
     inkscape:cx="252"
     inkscape:cy="252"
     inkscape:window-x="0"
     inkscape:window-y="25"
     inkscape:window-maximized="0"
     inkscape:current-layer="svg989" /><style
     type="text/css"
     id="style982">
<![CDATA[
	.st0{fill-rule:evenodd;clip-rule:evenodd;}
	.st1{fill:none;}
	.st2{fill:none;stroke:#000000;stroke-width:1.039;stroke-miterlimit:3.8637;}
	.st3{fill:#F5A01A;stroke:#000000;stroke-width:2.7415;stroke-linecap:round;stroke-linejoin:round;stroke-miterlimit:3.8637;}
	.st4{fill:#808285;stroke:#000000;stroke-width:2.7415;stroke-linecap:round;stroke-linejoin:round;stroke-miterlimit:3.8637;}
]]>
</style><defs
     id="defs984" /><path
     d="m 11.9,321.3 c 6.6,-13.8 7.5,-23.1 7.5,-37.1 0,-9.2 3.4,-17.4 8.8,-22.9 12.1,-12.1 31.6,-12.1 43.7,0 12.1,12.1 12.1,31.6 0,43.7 -5.4,5.4 -13.6,8.8 -22.9,8.8 -14.1,-0.1 -23.4,0.9 -37.1,7.5 z M 314.6,18.6 c -18.8,41.9 -106.9,142.7 -141.3,177.1 -4.1,4.1 -8.3,8.1 -12.6,12 l -35.3,-35.3 c 3.9,-4.3 7.9,-8.4 12,-12.6 C 171.8,125.4 272.7,37.3 314.6,18.6 Z m -196.9,162.5 34.4,34.4 c -21.4,18.4 -44.2,34.1 -68.2,47.1 L 70.7,249.4 c 12.9,-24.1 28.6,-46.9 47,-68.3 z m 272.1,25 c 0,-17.6 -9.4,-31.9 -21,-31.9 -11.6,0 -21,14.3 -21,31.9 0,17.6 9.4,31.9 21,31.9 11.6,0 21,-14.3 21,-31.9 z m -26.3,226.2 c 0,-15.6 -12.7,-28.3 -28.3,-28.3 -15.6,0 -28.3,12.7 -28.3,28.3 0,15.6 12.7,28.3 28.3,28.3 15.7,0 28.3,-12.7 28.3,-28.3 z M 249.1,317.9 c 0,-15.6 -12.7,-28.3 -28.3,-28.3 -15.6,0 -28.3,12.7 -28.3,28.3 0,15.6 12.7,28.3 28.3,28.3 15.6,0 28.3,-12.7 28.3,-28.3 z m 25.6,60.6 c -11.1,-11.1 -29,-11.1 -40,0 -11,11.1 -11,29 0,40 11,11.1 29,11.1 40,0 11.1,-11 11.1,-29 0,-40 z M 234.5,216.6 c -11.1,11.1 -11.1,29 0,40 11.1,11.1 29,11.1 40,0 11,-11.1 11,-29 0,-40 -11,-11.1 -28.9,-11.1 -40,0 z m 161.9,161.9 c -11.1,11.1 -11.1,29 0,40 11.1,11.1 29,11.1 40,0 11.1,-11.1 11.1,-29 0,-40 -11,-11.1 -28.9,-11.1 -40,0 z m 10,-125.5 c -2.8,4.3 -5.3,12.2 -5.3,19.2 0,19.4 15.2,35.5 34.3,37.2 32.7,5.7 57.5,34.2 57.5,68.6 0,18.6 -7.1,35.4 -19,47.9 C 442,462.2 395.2,485.1 343.1,485.1 247,485.1 169,407.2 169,311 169,215 246.9,137.2 342.7,136.9 l 9.5,0.3 c 38.5,0 69.6,31.2 69.6,69.6 -0.1,14.5 -4.9,30.4 -15.4,46.2 z"
     id="path986" /><rect
     class="st1"
     height="504"
     id="_x3C_Slice_x3E__29_"
     width="504" /></svg>
