<?xml version="1.0" ?><svg id="Fill" viewBox="0 0 512 512" xmlns="http://www.w3.org/2000/svg"><title/><g data-name="04. White man with snapback" id="_04._White_man_with_snapback"><path d="M133,172.5v27.215c0,5.785-8.7,6.082-8.965.3C123.978,198.743,124,171.5,124,172.5a4.5,4.5,0,0,1,9,0Zm246,0v27.215c0,5.785,8.7,6.082,8.965.3.057-1.275.035-28.518.035-27.518a4.5,4.5,0,0,0-9,0ZM447,136H396a8,8,0,0,1-8-8v-8A104,104,0,0,0,284,16H228A104,104,0,0,0,124,120v24a8,8,0,0,0,8,8H446.728a8.18,8.18,0,0,0,8.255-7.471A8,8,0,0,0,447,136ZM299.249,341.266a122.871,122.871,0,0,1-86.174.115c-5.6-2.093-10.238,4.9-6.066,9.178,8.789,9.017,20.012,18.5,25.541,37.151a7.982,7.982,0,0,0,5.27,5.31,60.211,60.211,0,0,0,36.33,0,7.976,7.976,0,0,0,5.29-5.3c5.11-17.25,14.92-26.81,25.39-36.79A5.655,5.655,0,0,0,299.249,341.266Zm-31.863,69.7a76.411,76.411,0,0,1-22.7.022,8.063,8.063,0,0,0-9.172,8.027V488a8,8,0,0,0,8,8h24.97a8,8,0,0,0,8-8V418.885A7.969,7.969,0,0,0,267.386,410.964ZM335.43,358.17a33.7,33.7,0,0,1-8.518-1.088,7.963,7.963,0,0,0-7.529,2.078l-11.305,11.017a53.011,53.011,0,0,0-15.593,37.7V488a8,8,0,0,0,8,8H410a8,8,0,0,0,8-8V440.74A82.536,82.536,0,0,0,335.43,358.17Zm-115.915,49.7a53.011,53.011,0,0,0-15.629-37.731l-10.974-11a7.876,7.876,0,0,0-7.579-2.118,33.824,33.824,0,0,1-8.763,1.15A82.536,82.536,0,0,0,94,440.74V488a8,8,0,0,0,8,8H211.515a8,8,0,0,0,8-8ZM157,168a8,8,0,0,0-8,8c0,.235-.006,51.576.01,51.81A107,107,0,0,0,363,226.96V176a8,8,0,0,0-8-8Z"/></g></svg>