<?xml version="1.0" ?><!DOCTYPE svg  PUBLIC '-//W3C//DTD SVG 1.1//EN'  'http://www.w3.org/Graphics/SVG/1.1/DTD/svg11.dtd'><svg enable-background="new 0 0 128 128" height="128px" id="Layer_1" version="1.1" viewBox="0 0 128 128" width="128px" xml:space="preserve" xmlns="http://www.w3.org/2000/svg" xmlns:xlink="http://www.w3.org/1999/xlink"><g><g><path d="M98.353,76.294c2.319-2.19,4.166-6.18,5.106-8.5c1.402-3.459,2.687-7.196,2.687-11.428c0-2.224-1.697-3.53-2.461-4.042    c-2.559,4.132-6.883,7.323-7.357,6.741c-0.827-1.014,8.584-9.782,8.158-17.095c-0.169-2.909-2.072-4.522-3.322-5.21    c0,0-7.019,8.062-8.04,6.703s7.3-10.358,7.3-10.358c0.086-0.098,2.255-2.623,0.997-5.939c-1.145-3.019-3.739-3.304-4.537-3.318    c0,0-10.692,5.798-11.427,4.187s10.158-6.906,10.158-6.906c0.611-0.675,2.987-3.694,0.94-7.916    c-1.79-3.69-6.578-3.224-8.552-2.853c-2.49,0.469-10.786,2.751-17.186,5.233c-0.086,0.065-0.176,0.125-0.275,0.171    c0,0-5.521,2.428-6.908,3.467c-1.072,0.91-2.682,1.992-4.59,3.209c-3.405,2.315-5.26,3.403-6.32,3.991    c-1.376,0.884-2.771,1.805-4.115,2.743c2.1,2.151,4.067,4.881,4.812,8.016c0.612,2.572-0.545,5.684-2.881,7.743    c-0.675,0.595-1.398,1.05-2.146,1.371c1.291,1.958,2.396,4.546,2.217,7.074c-0.127,1.794-0.965,4.311-4.233,6.114    c-0.293,0.162-0.61,0.287-0.938,0.396c0.44,1.402,0.897,3.679,0.289,6.034c-0.954,3.699-3.687,5.82-7.497,5.82c0,0,0,0,0,0    c-0.312,0-0.633-0.014-0.962-0.043c-0.548-0.048-1.071-0.122-1.58-0.219c-1.026,3.141-3.367,6.651-7.827,6.651c0,0,0,0-0.001,0    c-0.561,0-1.147-0.057-1.743-0.168c-2.891-0.54-5.403-1.758-7.64-3.683c-1.231,1.623-2.403,3.128-3.43,4.429l29.655,25.861    c3.391-4.159,9.029-10.376,13.418-11.738c2.846-0.882,5.006-1.324,7.294-1.792c2.657-0.544,5.406-1.107,9.601-2.438    C85.573,85.25,96.033,78.484,98.353,76.294z"/><path d="M83.757,104.168l29.053-25.335l-7.667-7.809c-1.596,3.559-3.07,5.843-4.991,7.67s-13.243,9.279-24.227,12.767    c-4.346,1.38-7.173,1.958-9.907,2.518c-0.092,0.019-0.182,0.037-0.272,0.056c2.532,1.228,6.006,2.784,9.215,3.783    c2.075,0.646,4.127,1.88,6.096,3.668C82.053,102.393,82.966,103.316,83.757,104.168z"/><path d="M19.289,70.932c0.322,0.338,0.654,0.647,0.991,0.944c1.873,1.65,3.974,2.686,6.39,3.138    c0.416,0.078,0.816,0.117,1.191,0.117c2.908,0,4.299-2.542,4.942-4.519c-2.16-0.888-4.404-2.328-7.561-4.487    c-0.047-0.032-0.093-0.067-0.136-0.104c-0.145-0.126-0.281-0.251-0.422-0.376c-0.793-0.706-1.53-1.408-2.202-2.106    c-1.369-1.424-2.486-2.836-3.356-4.243c-0.877,1.289-1.742,2.821-2.006,4.123c-0.436,2.14-0.009,4.336,1.126,6.153    C18.549,70.053,18.889,70.513,19.289,70.932z"/><path d="M21.208,56.873c0.707,1.323,1.677,2.668,2.935,4.043c0.046,0.051,0.1,0.102,0.147,0.152c0.615,0.663,1.3,1.333,2.045,2.01    c0.227,0.207,0.434,0.411,0.672,0.619c0.98,0.67,1.852,1.255,2.643,1.766c1.905,1.229,3.337,2.023,4.673,2.526    c0.668,0.252,1.314,0.432,1.982,0.555c0.398,0.073,0.804,0.129,1.228,0.166c2.81,0.239,4.624-0.95,5.292-3.539    c0.532-2.061-0.137-4.159-0.459-4.987c-3.035-0.261-7.022-1.918-11.896-4.967c-0.009-0.006-0.018-0.01-0.027-0.016    c-0.069-0.043-0.135-0.092-0.196-0.146l-1.036-0.907c-0.392-0.342-0.749-0.656-1.094-0.963c-1.807-1.605-3.104-2.909-5.231-5.851    c-0.395-0.545-0.73-1.078-1.035-1.605c-0.894,1.063-2.177,3.165-2.045,6.4c0.031,0.759,0.179,1.524,0.397,2.292    C20.432,55.23,20.768,56.048,21.208,56.873z"/><path d="M25.316,45.575c0.578,0.799,1.084,1.462,1.557,2.041c0.905,1.111,1.685,1.907,2.58,2.732    c0.521,0.48,1.079,0.971,1.731,1.54l0.609,0.533l0.343,0.301c3.144,1.961,5.551,3.104,7.385,3.75    c1.655,0.584,2.845,0.766,3.673,0.766c0,0,0,0,0,0c0.062,0,0.11-0.015,0.169-0.017c0.621-0.02,1.155-0.131,1.565-0.357    c1.7-0.938,2.58-2.148,2.69-3.7c0.161-2.261-1.359-4.893-2.592-6.376c-0.499-0.061-0.995-0.16-1.482-0.343    c-1.755-0.659-4.398-2.123-6.949-3.777c-0.855-0.555-1.698-1.13-2.496-1.706c-0.97-0.699-1.873-1.396-2.636-2.05    c-1.312-1.175-2.667-2.827-3.668-4.751c-1.253,0.47-3.184,1.528-4.039,3.767c-0.738,1.932-0.655,3.671,0.329,5.65    C24.403,44.214,24.81,44.874,25.316,45.575z"/><path d="M31.463,34.424c0.604,0.847,1.282,1.607,1.979,2.231c0.624,0.534,1.36,1.106,2.153,1.687    c0.784,0.573,1.624,1.151,2.48,1.711c1.383,0.904,2.801,1.753,4.062,2.426c0.934,0.499,1.781,0.901,2.463,1.157    c0.617,0.232,1.197,0.254,1.725,0.167c0.973-0.16,1.762-0.708,2.232-1.122c1.479-1.304,2.297-3.321,1.946-4.798    c-0.643-2.703-2.549-5.13-4.353-6.921c-0.635-0.63-1.255-1.179-1.805-1.636c-0.355,0.035-0.709,0.058-1.062,0.07    c-0.182,0.006-0.364,0.019-0.545,0.019c0,0,0,0-0.001,0c-3.362,0-5.773-1.101-6.815-2.043c-0.855-0.772-1.328-1.895-1.33-3.158    c-0.002-0.832,0.204-1.689,0.569-2.515c-0.047,0.009-0.1,0.015-0.143,0.026c-3.281,0.906-5.362,2.957-5.709,5.626    c-0.17,1.312,0.041,2.658,0.496,3.94C30.201,32.407,30.784,33.471,31.463,34.424z"/><path d="M40.225,26.137c0.712,0.166,1.555,0.279,2.512,0.279h0c0.106,0,0.214-0.009,0.321-0.012    c0.703-0.018,1.42-0.096,2.145-0.23c0.864-0.161,1.738-0.401,2.613-0.722c0.523-0.192,1.047-0.408,1.569-0.656    c0.098-0.046,0.195-0.095,0.292-0.143c0.264-0.131,0.527-0.263,0.79-0.408l0.271-0.147c0.131-0.071,0.286-0.155,0.458-0.25    c0.037-0.021,0.072-0.04,0.111-0.062c1.024-0.569,2.808-1.62,6.083-3.849c1.255-0.854,2.775-1.822,4.47-3.126    c1.596-1.229,5.356-2.808,5.356-2.808c-0.04-0.034-0.086-0.073-0.127-0.108c-1.454-1.248-3.639-3.015-5.984-4.522    c-1.71-1.1-3.175-1.612-4.611-1.612c-1.316,0-2.699,0.437-4.35,1.375c-1.75,0.994-4.465,3.711-7.34,6.587    c-1.286,1.287-2.613,2.592-3.958,3.877c-0.422,0.403-0.842,0.808-1.27,1.204c-0.145,0.133-0.284,0.274-0.429,0.406    c-0.405,0.368-0.743,0.795-1.003,1.238c-0.04,0.067-0.081,0.133-0.116,0.201c-0.275,0.522-0.431,1.058-0.435,1.54    c0,0.007-0.001,0.014-0.001,0.021c0,0.418,0.116,0.734,0.341,0.938C38.281,25.461,39.08,25.869,40.225,26.137z"/><path d="M45.11,108.904l-2.268-1.978L13.177,81.059l-2.265-1.976l-1.229-1.071c-0.313-0.272-0.717-0.423-1.137-0.423    c-0.505,0-0.982,0.215-1.31,0.59l-6.813,7.813c-0.302,0.347-0.451,0.794-0.419,1.259c0.032,0.464,0.24,0.885,0.585,1.186    l36.008,31.4c0.688,0.6,1.847,0.52,2.445-0.168l6.813-7.812c0.302-0.347,0.451-0.794,0.419-1.259s-0.24-0.887-0.586-1.188    L45.11,108.904z"/><path d="M127.578,85.993l-6.814-7.815c-0.326-0.374-0.805-0.589-1.31-0.589c-0.42,0-0.823,0.15-1.137,0.423l-1.235,1.077    l-30.558,26.646l-0.789,0.688l-2.263,1.974l-1.161,1.013c-0.346,0.302-0.554,0.724-0.586,1.188    c-0.031,0.465,0.117,0.912,0.419,1.258l6.812,7.813c0.6,0.688,1.756,0.77,2.446,0.168l36.009-31.399    c0.346-0.301,0.554-0.723,0.585-1.188C128.028,86.785,127.88,86.339,127.578,85.993z"/></g></g></svg>