<?xml version="1.0" ?><!DOCTYPE svg  PUBLIC '-//W3C//DTD SVG 1.1//EN'  'http://www.w3.org/Graphics/SVG/1.1/DTD/svg11.dtd'><svg enable-background="new 0 0 128 128" height="128px" id="Layer_1" version="1.1" viewBox="0 0 128 128" width="128px" xml:space="preserve" xmlns="http://www.w3.org/2000/svg" xmlns:xlink="http://www.w3.org/1999/xlink"><g><g><path d="M50.565,79.578l-0.678-0.217c-1.796-0.5-3.808-1.159-5.612-1.752c-1.162-0.381-2.269-0.741-3.231-1.034    c-0.053-0.015-0.103-0.033-0.153-0.05l-0.334-0.108l-0.161-0.051c-0.167-0.044-1.04-0.265-1.876-0.265    c-0.637,0-0.943,0.129-1.069,0.205c-1.133,0.686-1.332,2.65-0.976,3.758c0.64,1.99,2.549,3.473,6.588,5.109    c2.023,0.819,3.68,1.217,5.063,1.217c0.441,0,0.851-0.039,1.25-0.115c0.843-0.16,2.274-1.571,2.68-2.928    C52.148,83.041,52.895,80.323,50.565,79.578z"/></g><g><path d="M56.535,58.108c-0.21,0-0.434,0.001-0.669,0.005l-5.792,0.304l-0.088,0.005l-0.027,0.084    c-0.362,1.139-0.622,2.221-0.879,3.32c-0.328,1.399-0.485,2.034-0.782,2.438c-0.601,0.815-1.417,1.179-2.648,1.179    c-0.527,0-1.156-0.064-1.98-0.203c-0.635-0.107-2.247-0.567-3.487-2.512l-0.257-0.402L39.95,62.8    c0.102,2.138,0.651,3.104,0.803,3.104c0.04,0,0.08,0.003,0.118,0.007l3.701,0.471c1.692,0.187,4.162,0.515,6.126,0.779    l5.761,0.733l0.013,0.002l0.013-0.002c0.649-0.054,2.041-0.281,2.659-0.765c1.179-0.923,2.307-3.046,1.609-5.993    C60.157,58.627,58.698,58.118,56.535,58.108z"/></g><g><path d="M56.458,46.649c-0.797,0-1.435,0.093-1.612,0.121c-0.344,0.054-0.519,0.079-0.647,0.097l-0.12,0.017l0.011,0.121    c0.237,2.626-1.014,4.965-2.463,7.675l-0.486,0.912c-0.119,0.225-0.228,0.456-0.334,0.688l-0.09,0.194l0.214-0.015    c1.885-0.129,3.529-0.205,4.894-0.22c0.772-0.046,2.958-0.383,3.785-1.386c1.558-1.887,1.768-3.819,0.701-6.459    C59.729,46.951,57.895,46.649,56.458,46.649z"/></g><g><path d="M55.999,69.777c-0.684-0.092-1.664-0.225-2.79-0.379c-0.838-0.116-1.771-0.243-2.726-0.373l-6.166-0.784l-0.042-0.004    c-0.935-0.103-1.995-0.218-2.953-0.218c-2.584,0-3.062,0.862-3.193,1.795c-0.362,2.551-0.19,3.869,2.946,4.931    c1.035,0.326,7.052,2.224,9.268,2.926c1.892,0.527,3.2,0.783,4.001,0.783c0.084,0,0.162-0.002,0.235-0.008    c1.922-0.169,3.245-1.333,3.726-3.277c0.374-1.515,0.138-3.142-0.617-4.249C57.375,70.458,56.825,69.884,55.999,69.777z"/></g><g><path d="M34.807,80.604c-0.513-1.601-0.317-4.547,1.734-5.791c0.13-0.078,0.281-0.148,0.46-0.217l0.163-0.06l-0.107-0.138    c-0.875-1.115-1.11-2.565-0.787-4.847c0.053-0.375,0.146-0.72,0.277-1.034c0.394-0.941,1.136-1.607,2.218-1.986l0.139-0.049    l-0.069-0.131c-0.41-0.775-0.662-1.843-0.748-3.171l-0.022-0.342l-0.207,0.273c-1.032,1.374-2.186,2.606-3.43,3.668    c-3.721,3.175-7.929,4.16-9.041,4.16c-0.204,0-0.275-0.023-0.291-0.023c0.03-0.2,1.042-0.803,2.02-1.383    c1.661-0.988,3.935-2.34,6.092-4.184c3.405-2.907,5.068-6.316,5.496-7.292l0.014-0.031l-0.003-0.033    c-0.006-0.059-0.014-0.115-0.021-0.172c-0.009-0.072-0.019-0.146-0.025-0.222c-0.137-1.655-0.134-3.22,0.011-4.651l0.006-0.063    l-0.047-0.042c-0.566-0.518-1.632-1.604-2.41-3.073c-0.835-1.572-0.725-4.276-0.316-4.993c0.052-0.092,0.097-0.125,0.121-0.126    c0.212,0,0.429,0.644,0.68,1.389c0.271,0.804,0.608,1.804,1.172,2.852c0.285,0.529,0.636,1.045,1.042,1.536l0.154,0.186    l0.065-0.233c0.428-1.527,1.07-2.726,1.909-3.564c1.175-1.174,2.885-1.592,3.994-1.592c0.701,0,1.011,0.162,1.022,0.248    c0.027,0.215-0.655,0.614-1.315,1c-0.754,0.441-1.694,0.992-2.373,1.671c-1.558,1.556-2.213,4.86-1.845,9.305    c0.417,5.034,2.741,5.82,3.443,5.941c0.679,0.115,1.234,0.173,1.65,0.173c0.782,0,0.991-0.195,1.163-0.43    c0.085-0.168,0.255-0.885,0.453-1.734c0.064-0.275,0.136-0.577,0.213-0.899c0.234-0.963,0.535-2.106,0.943-3.277l0.013-0.032    c0.332-0.942,0.678-1.752,1.061-2.476l0.49-0.919c1.541-2.88,2.654-4.961,2.164-7.271c-0.44-2.083-2.246-3.031-4.532-4.232    c-0.374-0.195-0.75-0.394-1.128-0.601c-2.401-1.318-8.275-3.779-11.626-3.779c-0.359,0-0.685,0.028-0.967,0.085    c-0.409,0.081-0.801,0.18-1.177,0.294c-2.638,0.799-4.579,2.408-7.025,4.937c-0.549,0.566-1.685,1.925-2.888,3.364    c-4.191,5.006-6.24,7.324-7.301,7.823c-1.413,0.666-3.566,1.002-6.399,1.002c-2.922,0-5.999-0.362-8.064-0.666    c-0.301-0.048-0.565,0.02-0.753,0.182C0.095,55.087,0,55.321,0,55.606v25.33c0,0.303,0.114,0.577,0.32,0.774    c0.211,0.2,0.487,0.3,0.813,0.283c2.683-0.148,5.182-0.224,7.425-0.224c0.324,0,0.647,0.002,0.971,0.004    c1.531,0.016,2.614,0.828,3.674,1.623c0.963,0.724,1.959,1.472,3.506,1.904c3.242,0.907,6.212,1.448,12.62,1.719    c1.087,0.045,2.267,0.067,3.506,0.067c2.676,0,5.676-0.104,8.914-0.312l0.534-0.034l-0.492-0.21    C37.614,84.757,35.591,83.04,34.807,80.604z"/></g><g><path d="M91.525,80.064c0.354-1.106,0.156-3.072-0.977-3.758c-0.127-0.076-0.434-0.205-1.07-0.205    c-0.836,0-1.709,0.221-1.816,0.256l-0.028-0.02l-0.528,0.188c-0.049,0.018-0.099,0.035-0.151,0.051    c-0.968,0.295-2.087,0.658-3.259,1.045c-1.775,0.581-3.786,1.24-5.594,1.743l-0.666,0.213c-2.33,0.746-1.586,3.464-1.492,3.771    c0.406,1.355,1.838,2.769,2.681,2.928c0.399,0.078,0.81,0.115,1.251,0.115c1.384,0,3.04-0.396,5.062-1.216    C88.977,83.536,90.886,82.057,91.525,80.064z"/></g><g><path d="M82.131,76.258c1.752-0.553,3.467-1.095,4.342-1.37c0.049-0.016,0.106-0.032,0.151-0.048l0.303-0.096    c3.132-1.061,3.306-2.379,2.943-4.93c-0.132-0.933-0.609-1.795-3.193-1.795c-0.96,0-2.019,0.115-2.952,0.218l-6.209,0.788    c-0.953,0.13-1.887,0.257-2.726,0.373c-1.125,0.154-2.104,0.287-2.789,0.379c-0.826,0.105-1.376,0.681-1.692,1.143    c-0.752,1.107-0.988,2.734-0.613,4.249c0.479,1.944,1.803,3.108,3.725,3.277c0.074,0.006,0.15,0.008,0.236,0.008    c0.8,0,2.107-0.256,4.005-0.784C78.65,77.355,80.404,76.804,82.131,76.258z"/></g><g><path d="M71.527,67.896l5.773-0.735c1.807-0.244,4.407-0.59,6.129-0.779l3.696-0.471c0.039-0.004,0.08-0.007,0.12-0.007    c0.152,0,0.701-0.967,0.803-3.104l0.021-0.477l-0.256,0.402c-1.24,1.945-2.853,2.405-3.487,2.512    c-0.822,0.139-1.452,0.202-1.979,0.202c-1.229,0-2.047-0.362-2.646-1.179c-0.299-0.404-0.455-1.04-0.781-2.438    c-0.221-0.941-0.496-2.112-0.88-3.32l-0.026-0.084l-5.885-0.309c-0.23-0.004-0.453-0.005-0.665-0.005    c-2.162,0.01-3.622,0.52-4.218,3.03c-0.7,2.946,0.428,5.069,1.607,5.993c0.619,0.481,2.011,0.711,2.66,0.765L71.527,67.896z"/></g><g><path d="M72.182,56.236c1.357,0.016,3.002,0.091,4.887,0.22l0.213,0.015l-0.09-0.194c-0.096-0.207-0.209-0.45-0.334-0.687    l-0.484-0.913c-1.449-2.709-2.7-5.049-2.463-7.674l0.011-0.121l-0.119-0.017c-0.129-0.018-0.303-0.043-0.646-0.097    c-0.178-0.028-0.816-0.121-1.612-0.121c-1.438,0-3.271,0.302-3.854,1.741c-1.065,2.641-0.855,4.572,0.701,6.459    C69.217,55.853,71.402,56.19,72.182,56.236z"/></g><g><path d="M127.725,54.932c-0.188-0.163-0.451-0.23-0.752-0.182c-0.258,0.038-0.533,0.077-0.818,0.116    c-2.014,0.271-4.688,0.549-7.245,0.549c-2.833,0-4.985-0.336-6.399-1.002c-1.059-0.498-3.107-2.816-7.302-7.823    c-1.192-1.428-2.11-2.521-2.669-3.133c-0.08-0.086-0.152-0.164-0.217-0.231c-2.799-2.89-4.934-4.578-8.203-5.23    c-0.282-0.057-0.608-0.085-0.967-0.085c-3.352,0-9.226,2.461-11.627,3.779c-0.377,0.207-0.754,0.406-1.131,0.602    c-2.285,1.2-4.09,2.148-4.529,4.231c-0.49,2.311,0.624,4.392,2.164,7.271l0.49,0.919c0.383,0.727,0.73,1.537,1.061,2.478    l0.015,0.039c0.541,1.546,0.896,3.061,1.154,4.167c0.221,0.953,0.373,1.576,0.465,1.752c0.16,0.218,0.37,0.412,1.151,0.412    c0.416,0,0.972-0.059,1.648-0.173c0.702-0.121,3.027-0.907,3.444-5.941c0.368-4.444-0.287-7.748-1.845-9.305    c-0.682-0.68-1.62-1.229-2.374-1.671c-0.659-0.386-1.343-0.784-1.315-1c0.012-0.086,0.321-0.248,1.021-0.248    c1.107,0,2.82,0.418,3.994,1.592c0.838,0.838,1.48,2.037,1.908,3.564l0.065,0.233l0.155-0.187c0.404-0.49,0.757-1.007,1.041-1.535    c0.562-1.047,0.9-2.048,1.172-2.852c0.252-0.746,0.469-1.389,0.684-1.389c0.021,0.001,0.067,0.034,0.119,0.126    c0.408,0.717,0.518,3.42-0.316,4.993c-0.778,1.47-1.845,2.556-2.41,3.073l-0.047,0.042l0.008,0.063    c0.145,1.428,0.146,2.993,0.01,4.651c-0.006,0.077-0.016,0.149-0.025,0.222c-0.007,0.057-0.014,0.113-0.02,0.172l-0.004,0.033    l0.014,0.031c0.428,0.975,2.088,4.383,5.497,7.292c2.157,1.844,4.433,3.195,6.093,4.185c0.99,0.588,2.016,1.196,2.032,1.364    c0,0-0.056,0.043-0.304,0.043c-1.111,0-5.318-0.986-9.041-4.162c-1.24-1.059-2.396-2.292-3.432-3.667l-0.205-0.272l-0.022,0.341    c-0.086,1.33-0.337,2.397-0.747,3.171l-0.069,0.131l0.14,0.05c1.443,0.505,2.283,1.521,2.494,3.021    c0.324,2.28,0.088,3.73-0.785,4.848l-0.107,0.137l0.161,0.06c0.18,0.066,0.331,0.138,0.462,0.216    c2.051,1.244,2.247,4.192,1.734,5.793c-0.783,2.436-2.808,4.152-6.983,5.928l-0.493,0.21l0.535,0.034    c3.237,0.207,6.236,0.312,8.914,0.312c1.238,0,2.418-0.022,3.504-0.067c6.41-0.271,9.381-0.812,12.621-1.719    c1.546-0.434,2.542-1.181,3.516-1.912c1.049-0.785,2.133-1.601,3.664-1.615c0.325-0.002,0.649-0.004,0.971-0.004    c2.246,0,4.742,0.074,7.428,0.224c0.021,0.001,0.043,0.001,0.064,0.001c0.105,0,0.199-0.026,0.297-0.053    c0.027-0.008,0.062-0.006,0.09-0.017c0.134-0.048,0.257-0.118,0.361-0.216c0.205-0.197,0.319-0.473,0.319-0.775V55.606    C128,55.321,127.904,55.087,127.725,54.932z"/></g></g><g><path d="M64,36.684c-0.829,0-1.5-0.671-1.5-1.5v-16c0-0.829,0.671-1.5,1.5-1.5c0.828,0,1.5,0.671,1.5,1.5v16   C65.5,36.012,64.828,36.684,64,36.684z"/></g><g><path d="M72.229,39.316c-0.278,0-0.56-0.077-0.811-0.239c-0.697-0.448-0.898-1.376-0.45-2.073l8.539-13.266   c0.449-0.697,1.378-0.896,2.073-0.449c0.697,0.448,0.898,1.376,0.45,2.073l-8.539,13.266   C73.205,39.074,72.722,39.316,72.229,39.316z"/></g><g><path d="M55.771,39.316c-0.493,0-0.976-0.243-1.263-0.688l-8.539-13.266c-0.448-0.697-0.247-1.625,0.449-2.073   c0.698-0.449,1.625-0.247,2.073,0.449l8.539,13.266c0.448,0.697,0.247,1.625-0.449,2.073C56.33,39.239,56.049,39.316,55.771,39.316   z"/></g><g><path d="M64,110.316c-0.829,0-1.5-0.672-1.5-1.5v-16c0-0.828,0.671-1.5,1.5-1.5c0.828,0,1.5,0.672,1.5,1.5v16   C65.5,109.645,64.828,110.316,64,110.316z"/></g><g><path d="M47.229,104.949c-0.278,0-0.559-0.077-0.811-0.238c-0.696-0.449-0.897-1.377-0.449-2.073l8.539-13.266   c0.448-0.696,1.375-0.898,2.073-0.45c0.696,0.449,0.897,1.377,0.449,2.073l-8.539,13.266   C48.205,104.706,47.722,104.949,47.229,104.949z"/></g><g><path d="M80.771,104.949c-0.492,0-0.976-0.242-1.263-0.688l-8.539-13.266c-0.448-0.696-0.247-1.624,0.45-2.073   c0.693-0.446,1.623-0.249,2.073,0.45l8.539,13.266c0.448,0.696,0.247,1.624-0.45,2.073   C81.33,104.872,81.049,104.949,80.771,104.949z"/></g></svg>