<?xml version="1.0" ?><svg style="enable-background:new 0 0 634.231 663.536;" version="1.1" viewBox="0 0 634.231 663.536" xml:space="preserve" xmlns="http://www.w3.org/2000/svg" xmlns:xlink="http://www.w3.org/1999/xlink"><g id="cheers_x5F_drink_x5F_party_x5F_alcohol_x5F_celebrate_x5F_beer_x5F_"><g><path d="M628.689,519.471l-16.487-25.487l-80.004,51.752c-2.311,1.495-5.276-0.028-6.771-2.339L427.71,392.335    c-1.495-2.311-1.2-4.916,1.111-6.411l80.004-51.752l-8.15-12.6c-17.252-26.67-49.657-40.144-80.714-33.481    c-7.289,1.564-14.857-1.625-18.907-7.885l-16.817-25.997l-39.785,59.494l1.428,2.192c4.05,6.26,3.855,14.47-0.56,20.478    c-18.811,25.594-19.807,60.675-2.555,87.345l128.014,197.899c10.267,15.872,30.42,22.43,46.293,12.163l101.631-65.741    C634.575,557.772,638.956,535.343,628.689,519.471z"/><path d="M326.591,286.286l0.053,0.081l17.19-25.706c1.568,0.088,3.146-0.113,4.708-0.637c2.956-0.991,5.156-2.587,6.998-5.388    l22.951-34.899l18.287-27.807c4.373-6.649,3.619-16.565-3.03-20.938l-40.717-26.777c-6.649-4.373-18.142-2.51-22.514,4.139    l-3.356,5.104l-20.31-31.398c-4.322-6.682-15.801-8.631-22.482-4.309l-40.918,26.469c-6.682,4.322-7.51,14.232-3.188,20.914    l40.762,63.015c0.887,1.371,1.863,2.452,2.968,3.322l-48.871,74.313c-4.097,6.229-11.688,9.361-18.966,7.742    c-31.006-6.898-63.511,6.332-80.964,32.87l-8.245,12.538l79.611,52.355c2.3,1.513,2.575,4.119,1.062,6.419l-98.856,150.321    c-1.512,2.3-4.488,3.8-6.788,2.287l-79.611-52.355L5.686,543.323c-10.387,15.794-6.175,38.255,9.619,48.642l101.131,66.507    c15.794,10.387,35.996,3.981,46.383-11.813l129.505-196.926c17.453-26.539,16.721-61.626-1.896-87.362    c-4.37-6.04-4.502-14.251-0.406-20.481l22.304-33.915l7.883-11.987L326.591,286.286z"/><path d="M572.182,113.319c-2.631-7.855-11.134-12.09-18.987-9.458l-74.478,24.952c-7.855,2.631-12.09,11.133-9.458,18.988    c2.102,6.274,7.949,10.238,14.221,10.238c1.579,0,3.187-0.252,4.767-0.781l74.478-24.952    C570.579,129.675,574.813,121.174,572.182,113.319z"/><path d="M558.716,234.257l-51.019-25.358c-7.42-3.686-16.422-0.663-20.109,6.756c-3.687,7.419-0.662,16.422,6.756,20.109    l51.019,25.358c2.146,1.065,4.422,1.57,6.665,1.57c5.515,0,10.823-3.053,13.444-8.326    C569.158,246.947,566.134,237.944,558.716,234.257z"/><path d="M482.409,3.763c-7.078-4.31-16.305-2.062-20.612,5.013L434.369,53.83c-4.308,7.076-2.063,16.305,5.013,20.612    c2.437,1.483,5.128,2.189,7.785,2.189c5.062,0,10.003-2.562,12.827-7.202l27.428-45.055    C491.729,17.299,489.485,8.07,482.409,3.763z"/><path d="M175.33,146.229c2.632-7.854-1.603-16.356-9.458-18.987L91.393,102.29c-7.852-2.635-16.356,1.603-18.987,9.458    c-2.632,7.854,1.603,16.356,9.458,18.987l74.479,24.952c1.58,0.53,3.187,0.781,4.767,0.781    C167.381,156.469,173.228,152.504,175.33,146.229z"/><path d="M136.891,207.327l-51.018,25.357c-7.418,3.688-10.442,12.69-6.756,20.109c2.622,5.273,7.929,8.326,13.444,8.326    c2.242,0,4.521-0.505,6.665-1.57l51.018-25.357c7.418-3.688,10.442-12.69,6.756-20.109    C153.312,206.666,144.31,203.641,136.891,207.327z"/><path d="M197.422,75.061c2.657,0,5.35-0.706,7.785-2.189c7.076-4.308,9.32-13.536,5.013-20.612L182.792,7.203    c-4.307-7.076-13.537-9.322-20.612-5.013c-7.076,4.308-9.32,13.536-5.013,20.612l27.428,45.056    C187.419,72.499,192.359,75.061,197.422,75.061z"/></g></g><g id="Layer_1"/></svg>