<?xml version="1.0" ?><svg height="512" id="svg5347" version="1.1" width="512" xmlns="http://www.w3.org/2000/svg" xmlns:cc="http://creativecommons.org/ns#" xmlns:dc="http://purl.org/dc/elements/1.1/" xmlns:inkscape="http://www.inkscape.org/namespaces/inkscape" xmlns:rdf="http://www.w3.org/1999/02/22-rdf-syntax-ns#" xmlns:sodipodi="http://sodipodi.sourceforge.net/DTD/sodipodi-0.dtd" xmlns:svg="http://www.w3.org/2000/svg"><defs id="defs5349"/><g id="layer1" transform="translate(0,-540.36218)"><path d="m 142.45712,610.93461 c -74.023494,0.0636 -122.825254,66.22951 -118.020959,145.89418 5.25699,87.17278 79.449409,185.49179 228.795989,258.80511 0.22486,0.093 0.36443,0.1075 0.63229,0 149.34727,-73.31332 223.53896,-171.63209 228.79599,-258.80511 4.80419,-79.66467 -43.99747,-145.83063 -118.02104,-145.89418 -32.88234,-0.0282 -70.7491,12.99207 -111.09974,43.66401 -40.35063,-30.67194 -78.20011,-43.69223 -111.08253,-43.66401 z m 91.56626,132.11994 a 9.5711502,9.5711502 0 0 1 9.38222,6.80167 l 30.29983,100.11106 23.37868,-40.98094 a 9.5711502,9.5711502 0 0 1 8.44234,-4.83636 l 85.46513,1.16209 a 9.5711502,9.5711502 0 1 1 -0.25634,19.14039 l -79.82562,-1.09374 -31.61584,55.42167 a 9.5711502,9.5711502 0 0 1 -17.46555,-1.9653 l -29.95818,-99.01733 -22.78044,43.45894 a 9.5711502,9.5711502 0 0 1 -8.52781,5.12689 l -84.30313,-0.37597 a 9.5711502,9.5711502 0 1 1 0.0851,-19.14039 l 78.49275,0.34179 30.9323,-59.02758 a 9.5711502,9.5711502 0 0 1 8.25427,-5.12689 z" id="path2985" style="fill:#1a1a1a;fill-opacity:1;stroke:none"/></g></svg>