<?xml version="1.0" ?><svg height="100" id="fbgcbg" viewBox="0 0 100 100" width="100" xmlns="http://www.w3.org/2000/svg"><title/><path d="M32.58,42.06c4-11.45,8.53-9.23,9.28-8.19,4,5.5,11.64,5.31,14.8-.19a1.49,1.49,0,0,1,.89-.69c5.5-1.51,9.74,6.29,10.21,10.74,1.89-4.64,2-10.68.13-14-2.12-3.67-5.47,0-6.12-3.63C60.22,16.37,26.83,17.36,32.58,42.06Z"/><path d="M83,27.15c-2.69,3.36-7.53,4.09-11.65,3.25a21.56,21.56,0,0,1-.21,12.67C84.38,48.57,88.45,29,83,27.15Z"/><path d="M58.86,35.81a11.42,11.42,0,0,1-15.34,3.5A13.39,13.39,0,0,1,39.7,36c-.66-.14-2.29.45-4.88,8.83,0,15.39,15.3,23.09,25.53,12.86,4.39-4.39,4.4-8.49,4.4-13.86C64.59,40.87,61.37,35.92,58.86,35.81Z"/><path d="M64.63,24.95c3.63,0,3.87,1.27,4.6,1.62,3.49,1.68,9.29,1.77,11.58-1.43,1.39-1.94,4.77-1.14,6.5,2.49C88.84,12.83,68,12.82,67,18.7c-.48,2.65-3.27,1.18-4.54,2.72A6.94,6.94,0,0,1,64.63,24.95Z"/><path d="M70.09,45.86a24.12,24.12,0,0,1-1.47,2.7,9,9,0,0,0,14.65-2.74c0-.3-.34-1.33,0-1.86A13.17,13.17,0,0,1,70.09,45.86Z"/><path d="M63.83,67.41c-6,10.56-21.78,10.83-28,0-5.05,1.14-12.94,3.73-16.54,7.54s-3.18,5.58-3.18,10H83.57c0-4.43.72-6.11-3-9.85C76.81,71.21,69,68.59,63.83,67.41Z"/><path d="M38.36,65.74a13.2,13.2,0,0,0,23,0c-.78-1.18-.65-2.25-.65-3.63H99.5c0-9.74-4.28-12.1-13.84-14.31a12,12,0,0,1-18.42,3.57,18,18,0,0,1-34.82.29,12,12,0,0,1-18.07-3.86C4.83,50,.5,52.14.5,62.1H39C39,63.48,39.15,64.55,38.36,65.74Z"/><path d="M17.18,25.95a25.57,25.57,0,0,0-2.49,5.42c0,3.61,0,6.44,3,9.46a10.2,10.2,0,0,0,12,1.85c-1.24-5.33-.88-10,.78-13.76C26,30,20.23,29.63,17.18,25.95Z"/><path d="M31.49,48.44q-.58-1.45-1-2.83a13.17,13.17,0,0,1-13.63-1.55,8.54,8.54,0,0,1-.11,1.75A9,9,0,0,0,31.49,48.44Z"/><path d="M15.7,23.15c2-1.66,3-.32,3.65.72A7.63,7.63,0,0,0,25,26.43,15.15,15.15,0,0,0,33,24.76a18.62,18.62,0,0,1,4.22-3.64c-1.35-1.8-3.69.53-4.21-2.42C32,12.78,10.72,12.81,12.75,28.12,14,25.19,15,23.77,15.7,23.15Z"/></svg>