<?xml version="1.0" ?><!DOCTYPE svg  PUBLIC '-//W3C//DTD SVG 1.1//EN'  'http://www.w3.org/Graphics/SVG/1.1/DTD/svg11.dtd'><svg enable-background="new 0 0 433.604 336.637" height="336.637px" id="Layer_1" version="1.1" viewBox="0 0 433.604 336.637" width="433.604px" xml:space="preserve" xmlns="http://www.w3.org/2000/svg" xmlns:xlink="http://www.w3.org/1999/xlink"><path d="M52.131,267.656C20.586,261.391,0,246.863,0,246.863c12.191-11.234,24.836-28.875,35.84-49.344l-25.49-13.918  c12.188-11.246,24.844-28.895,35.846-49.344l-25.494-13.922C45.932,97.066,73.186,46.402,83.596,0  c10.666,46.34,38.223,96.848,63.572,119.965l-25.406,14.074c8.465,15.504,17.871,29.359,27.275,40.031L60.471,296.203h-8.34V267.656  z M433.604,308.203v28.434H2.963v-28.434h67.109L236.215,79.098l166.141,229.105H433.604z M236.611,308.203h107.695  c-51.557-30.609-96.795-121.809-107.695-168.367V308.203z M405.727,132.152c-29.65,0-53.686-24.035-53.686-53.684  c0-13.328,4.883-25.492,12.92-34.879c-24.146,6.941-41.828,29.148-41.828,55.527c0,31.93,25.883,57.816,57.816,57.816  c22.672,0,42.24-13.082,51.713-32.078C424.738,129.469,415.557,132.152,405.727,132.152z"/></svg>