<?xml version="1.0" ?><!DOCTYPE svg  PUBLIC '-//W3C//DTD SVG 20010904//EN'  'http://www.w3.org/TR/2001/REC-SVG-20010904/DTD/svg10.dtd'><svg height="383.942576pt" preserveAspectRatio="xMidYMid meet" version="1.0" viewBox="0 0 383.884406 383.942576" width="383.884406pt" xmlns="http://www.w3.org/2000/svg"><g fill="#000000" stroke="none" transform="translate(-0.099184,384.042281) scale(0.100000,-0.100000)"><path d="M1710 3829 c-490 -57 -945 -300 -1258 -674 -487 -581 -588 -1382 -262 -2063 193 -401 501 -709 901 -901 682 -327 1483 -226 2064 261 431 360 685 906 685 1468 0 562 -254 1108 -685 1468 -400 336 -937 499 -1445 441z m305 -674 c270 -32 514 -202 639 -445 70 -135 90 -219 91 -380 0 -175 -32 -296 -111 -426 -106 -171 -698 -1191 -707 -1216 -8 -23 -26 -23 -34 -1 -9 26 -601 1046 -707 1217 -79 130 -111 251 -111 426 1 161 21 245 91 380 129 251 372 415 665 449 41 4 88 7 104 5 17 -2 53 -6 80 -9z"/><path d="M1790 2754 c-308 -82 -412 -474 -186 -700 241 -240 651 -107 709 230 51 296 -230 548 -523 470z"/></g></svg>