<?xml version="1.0" ?><svg viewBox="0 0 100 100" xmlns="http://www.w3.org/2000/svg"><title/><path d="M88.33,52.12a22.49,22.49,0,0,0-2-2.26,8.45,8.45,0,0,1-4,2.78,7,7,0,0,1-2.39.48c-2.92,0-4.2-2.25-5.22-4a27.5,27.5,0,0,0-2-3.16l-.6-.79a14.8,14.8,0,0,1-3.94.89c-.46,0-.91.06-1.36.06a13.25,13.25,0,0,1-8.16-2.68,53.69,53.69,0,0,0-7.48,6.93c.18.15.35.29.49.42s.24.21.34.3a2.15,2.15,0,0,1,.25.29,1.33,1.33,0,0,1,.27.92,2.35,2.35,0,0,1-.07.41c-.59,2.52-.91,13.32-1.09,21.5,0,.54.07,1.06.1,1.55.2,3.52.37,6.31.4,7.42,0,0,0,.05,0,.08H82.36c-.07-2.38-.2-23.19-.49-25.77a5.23,5.23,0,0,1,.41.55c2.8,4.16,3.92,7.62,4.17,10.51.66,7.39-4.73,14.35-1.34,16.13.19.1.38.18.57.26l.18.06.38.11.2,0,.33.05h.71l.32-.06L88,85l.35-.13.12,0a4.77,4.77,0,0,0,.44-.24l.11-.08.31-.23.15-.13L89.7,84l.16-.17.22-.25.15-.2.21-.27.15-.22.19-.3c0-.07.09-.15.14-.23L91.1,82c.05-.08.09-.16.13-.24s.13-.25.19-.38.07-.14.1-.22.17-.37.25-.56l.06-.14c.07-.19.15-.38.22-.58l.09-.25.15-.42.09-.29c0-.14.09-.27.13-.4l.09-.31c0-.13.08-.27.11-.4l.09-.31c0-.14.07-.27.1-.4s0-.21.08-.32l.09-.4a2.82,2.82,0,0,0,.07-.31c0-.14.07-.28.1-.42s0-.18.05-.28.07-.33.1-.5,0-.13,0-.19l.12-.67,0-.21c0-.15,0-.31.07-.46a2,2,0,0,0,0-.24l.06-.4,0-.25c0-.12,0-.24,0-.36l0-.25,0-.33,0-.24,0-.3c0-.08,0-.15,0-.22s0-.2,0-.29,0-.13,0-.19,0-.19,0-.28a.81.81,0,0,0,0-.15c0-.14,0-.27,0-.38A28.43,28.43,0,0,0,88.33,52.12Z"/><path d="M80.21,39.46q-.24-.32-.48-.6l0,0-.39-.47a12.58,12.58,0,0,1-4.52,5.37c.1.14.2.26.28.38,2.74,3.64,3,6,4.85,6a4,4,0,0,0,1.35-.3,5.17,5.17,0,0,0,2.77-1.92h0c.7-1.14.39-2.46-.35-3.81,0-.05,0-.1-.07-.14a16.31,16.31,0,0,0-1.46-2.11l-.26-.33-.47-.58-.3-.36-.83-1Z"/><path d="M48.69,83.21h.15c0-1.22-.24-4.71-.5-9-.49-8.46-1.14-20-.88-23.12a2.77,2.77,0,0,1,.11-.72,8.67,8.67,0,0,1,1.32-2h0a47.18,47.18,0,0,1,5.63-5.51c.64-.55,1.3-1.08,1.95-1.6a13,13,0,0,1-2.14-3.83c-.52-1.43-.95-2.78-1.31-4.07a35.44,35.44,0,0,1-5.25,4.31c-.39.24-2.54,2.09-4.55,3.68A13,13,0,0,1,33.08,46c-.45,0-.91,0-1.37-.06A14.72,14.72,0,0,1,28,45.05c-.09.12-.17.22-.25.34l-.39.52a27.5,27.5,0,0,0-2,3.16A14.19,14.19,0,0,1,24,51.14a4.75,4.75,0,0,1-3.89,2,7,7,0,0,1-2.39-.48,8.45,8.45,0,0,1-4-2.78,22.49,22.49,0,0,0-2,2.26A28.43,28.43,0,0,0,6,69.45v0c0,.1,0,.21,0,.32A1,1,0,0,0,6,70c0,.09,0,.17,0,.27s0,.13,0,.2,0,.18,0,.28,0,.14,0,.22l0,.3,0,.24,0,.32,0,.27c0,.11,0,.22,0,.34l0,.27.06.37a2.51,2.51,0,0,0,0,.27c0,.14,0,.29.07.44l0,.22.12.67c0,.07,0,.15,0,.22s.06.31.1.47,0,.19.06.29.05.28.09.41a2.82,2.82,0,0,0,.07.31l.09.4c0,.11.05.21.08.32s.07.26.1.4l.09.31c0,.13.07.27.11.4l.09.31c0,.13.09.26.13.4l.09.29.15.42.09.25c.07.2.15.39.22.58l.06.14c.08.19.16.38.25.56s.07.15.1.22.12.26.19.38.08.16.13.24l.18.33c.05.08.09.16.14.23l.19.3.15.22.21.27.15.2.22.25.16.17.25.23.15.13.31.23.11.08a4.77,4.77,0,0,0,.44.24l.12,0L12,85l.17,0,.32.06h.71l.33-.05.2,0,.38-.11.18-.06c.19-.08.38-.16.57-.26,1.06-.56,1.26-1.62,1.06-3a16,16,0,0,0-.41-1.87c-.82-3-2.36-7.06-2-11.22.25-2.89,1.37-6.35,4.17-10.51a5.23,5.23,0,0,1,.41-.55h0c-.29,2.58-.42,23.39-.49,25.77H48.69Z"/><path d="M16,44.71a5.36,5.36,0,0,0-.37,1.11,3.46,3.46,0,0,0-.06.71c0,1.29.87,2.45,3.16,3.29a4,4,0,0,0,1.35.3c1.88,0,2.11-2.38,4.85-6L25,44h0l.21-.27a12.59,12.59,0,0,1-4.59-5.29l-.35.43v0c-.42.53-.91,1.11-1.41,1.71l-.6.73-.6.75c-.29.37-.56.76-.82,1.14A9.24,9.24,0,0,0,16,44.71Z"/><path d="M57.15,36.43a10.24,10.24,0,0,0,1.73,3h0l.24.27a2.73,2.73,0,0,0,.23.25l.31.31.25.24.33.28.28.22c.11.09.23.17.36.26l.29.19a3.64,3.64,0,0,0,.39.23,2.91,2.91,0,0,0,.3.17l.42.21.31.14.46.18.32.11c.17.06.34.1.51.15l.3.08c.22.06.45.1.67.14l.18,0a8.65,8.65,0,0,0,.89.1h.25l.67,0c.34,0,.69,0,1,0a10,10,0,0,0,9.43-8.36c1.27-7.32.56-10.76.22-12a7.89,7.89,0,0,0-.29-.86l-.12-.28c-.08-.19-.16-.37-.25-.55l-.17-.31c-.09-.16-.18-.32-.28-.47l-.21-.32c-.1-.14-.2-.29-.31-.43l-.25-.3c-.11-.13-.22-.27-.34-.39a3.83,3.83,0,0,0-.28-.29c-.12-.12-.24-.25-.37-.36l-.31-.27-.4-.33-.33-.25c-.14-.1-.28-.2-.43-.29l-.35-.22c-.15-.1-.3-.18-.46-.27L72,16.3l-.49-.23-.37-.17-.52-.2-.38-.13-.55-.16-.37-.1-.61-.13a3.43,3.43,0,0,0-.34-.06l-.75-.1-.21,0c-.32,0-.65,0-1,0s-.69,0-1,0c-5.4.46-10.11,4.66-10.58,9.65C54.74,25.94,54.63,29.44,57.15,36.43Z"/><path d="M22.61,21.69a7.49,7.49,0,0,0-.27.84v0c-.34,1.24-1,4.67.21,12a9.91,9.91,0,0,0,4.56,6.8h0A11.12,11.12,0,0,0,32,42.9h0c.35,0,.7,0,1,.05s.45,0,.67,0H34c.3,0,.59-.06.88-.11a1,1,0,0,0,.18,0l.68-.13.29-.09a5.08,5.08,0,0,0,.52-.15l.31-.11c.16-.06.31-.11.46-.18l.32-.14.42-.21.3-.16.39-.24.29-.19.36-.26.27-.21.34-.29.25-.23c.11-.1.21-.21.31-.32l.23-.24.29-.34a10.32,10.32,0,0,0,1.68-3c.33-.92.61-1.78.86-2.58h0c.33-1.09.59-2.07.8-2.95A19.56,19.56,0,0,0,45,24.53a10,10,0,0,0-2.76-5.85,12.29,12.29,0,0,0-7.82-3.8c-.35,0-.69-.05-1-.05s-.65,0-1,0l-.23,0c-.25,0-.49,0-.73.09l-.36.07-.59.12-.38.1-.54.16-.39.14-.51.19-.38.17-.48.23-.37.2-.45.26-.36.22c-.14.1-.28.19-.42.3l-.34.25-.39.32-.32.27-.36.36-.29.29-.33.39-.26.31-.3.42-.22.32-.27.47-.18.32-.24.53C22.7,21.5,22.65,21.59,22.61,21.69Z"/></svg>