<?xml version="1.0" ?><svg enable-background="new 0 0 64 64" id="Layer_1" version="1.1" viewBox="0 0 64 64" xml:space="preserve" xmlns="http://www.w3.org/2000/svg" xmlns:xlink="http://www.w3.org/1999/xlink"><g><path d="M21.296,7.979c-0.204,0.319-0.362,0.657-0.484,1.059c0.171-0.292,0.319-0.545,0.468-0.798   c0.012,0.006,0.025,0.012,0.037,0.019c-0.015,0.069-0.029,0.137-0.046,0.206c-0.003,0.013-0.006,0.026-0.009,0.039   c-0.42,1.849-0.527,3.756-0.343,5.644l0.387,3.981c0.038,0.391,0.062,0.783,0.088,1.175c0.129,1.937,0.95,3.767,2.486,5.56   c0.044,0.051,0.085,0.123,0.103,0.185c0.54,1.7,1.332,3.072,2.424,4.194c1.642,1.687,3.591,2.579,5.64,2.58h0.004   c2.04,0,3.981-0.885,5.615-2.561c1.047-1.072,1.822-2.384,2.372-4.009c0.061-0.18,0.176-0.38,0.314-0.549   c1.591-1.931,2.37-3.897,2.367-5.986c0-0.145,0-0.29,0.002-0.435l0.03-7.23c-0.036-0.24-0.071-0.483-0.106-0.73   c0.038,0.098,0.075,0.193,0.112,0.285c0.066,0.167,0.128,0.327,0.186,0.487c0.088,0.246,0.164,0.496,0.245,0.745   c0.006-0.047-0.001-0.09-0.01-0.132c-0.162-0.782-0.354-1.555-0.699-2.281c-0.027-0.057-0.054-0.114-0.078-0.171   c-0.001-0.001-0.001-0.002-0.001-0.002c-0.047-0.106-0.091-0.213-0.13-0.321c-0.114-0.31-0.228-0.62-0.341-0.931   c-0.086-0.236-0.171-0.472-0.257-0.708c-0.016-0.043-0.032-0.085-0.047-0.128c0.017-0.01,0.035-0.019,0.052-0.029   c0.291,0.459,0.583,0.919,0.873,1.378c-0.045-0.154-0.1-0.308-0.161-0.458c-0.264-0.641-0.605-1.23-1.118-1.709   c-0.108-0.1-0.205-0.211-0.286-0.332c-0.518-0.772-1.141-1.427-1.993-1.825c-0.025-0.012-0.05-0.024-0.075-0.035   c-0.392-0.174-0.787-0.338-1.18-0.507c-0.099-0.042-0.197-0.085-0.295-0.128c0.2,0.016,0.397,0.038,0.592,0.068   c1.114,0.166,2.166,0.54,3.187,1.022c-0.04-0.041-0.084-0.071-0.128-0.102c-1.226-0.828-2.595-1.243-4.05-1.414   c-0.056-0.006-0.112-0.012-0.169-0.018c-0.488-0.047-0.981-0.063-1.447-0.251c-0.182-0.073-0.378-0.112-0.57-0.162   c-0.221-0.057-0.443-0.112-0.664-0.166c-0.054-0.013-0.106-0.026-0.16-0.039c0.003-0.028,0.002-0.019,0.005-0.046h2.517   c-0.019-0.049-0.042-0.064-0.066-0.068c-1.095-0.158-2.192-0.276-3.299-0.176c-0.379,0.034-0.754,0.051-1.131-0.001   c-0.166-0.023-0.336-0.029-0.504-0.044c-0.001-0.028-0.001-0.02-0.002-0.048c0.822-0.153,1.643-0.306,2.512-0.468   c-0.872,0.021-1.693,0.079-2.505,0.223c-0.453,0.08-0.897,0.226-1.353,0.285c-0.65,0.085-1.309,0.119-1.968,0.174   c1.302-0.62,2.695-0.889,4.114-1.047c-0.267,0.007-0.534-0.004-0.799,0.01c-0.983,0.051-1.958,0.167-2.911,0.427   c-0.79,0.216-1.539,0.517-2.184,1.041c-0.122,0.099-0.27,0.168-0.406,0.25c-0.013-0.021-0.028-0.041-0.041-0.062   c0.296-0.214,0.582-0.446,0.891-0.64c0.316-0.197,0.649-0.37,0.985-0.529c0.326-0.153,0.666-0.276,0.999-0.411   c-0.661,0.168-1.298,0.401-1.911,0.701c-1.216,0.597-2.131,1.593-3.182,2.407c-0.002,0.002-0.004,0.005-0.006,0.007   c-0.068,0.11-0.142,0.217-0.203,0.332c-0.088,0.17-0.156,0.352-0.257,0.512c-0.046,0.073-0.145,0.124-0.229,0.16   c-0.172,0.07-0.357,0.112-0.526,0.187c-0.906,0.406-1.439,1.115-1.666,2.07c0.217-0.434,0.492-0.823,0.893-1.175   c-0.109,0.374-0.199,0.706-0.304,1.032C21.446,7.715,21.378,7.852,21.296,7.979z M23.492,18.208l0.01-0.119   c0.008-0.102,0.019-0.243,0.035-0.333c0.507-0.169,0.806-0.654,0.823-1.338c0.012-0.487,0.015-0.98,0.02-1.455   c0.004-0.531,0.01-1.072,0.025-1.612c0-0.905,0.734-1.633,1.633-1.633c0.016,0,0.032,0,0.048,0.001l0.82,0.024   c0.675-0.055,1.357-0.048,2.036-0.057c0.608-0.008,1.216-0.002,1.824-0.002h1.792c0.652,0,1.304,0.002,1.957-0.001   c0.482-0.002,0.964-0.01,1.445-0.012c0.417-0.003,0.833-0.001,1.25-0.002c0.405-0.001,0.806-0.008,1.204,0.113   c0.46,0.14,0.804,0.411,1.002,0.836c0.128,0.272,0.186,0.577,0.274,0.858c0.004-0.005,0.01-0.012,0.014-0.017   c0.012,0.463,0.012,0.935,0.012,1.421c-0.001,0.423-0.002,0.86,0.007,1.296c0.003,0.116,0.002,0.233,0.001,0.359v0.244   c0,0.487,0.349,0.906,0.828,0.992c0.019,0.09,0.032,0.216,0.037,0.267c0.198,1.866-0.391,3.562-1.853,5.337   c-0.302,0.367-0.537,0.784-0.681,1.208c-0.447,1.321-1.064,2.374-1.887,3.218c-1.23,1.262-2.653,1.929-4.116,1.929h-0.003   c-1.47-0.001-2.902-0.675-4.14-1.948c-0.859-0.883-1.49-1.984-1.929-3.366c-0.103-0.327-0.285-0.652-0.509-0.915   C23.964,21.746,23.336,20.063,23.492,18.208z"/><path d="M55.055,58.611c0.069,0.962-0.004,1.091-0.892,1.425c-2.32,0.873-4.736,1.359-7.176,1.718   c-4.956,0.729-9.95,0.937-16.902,0.997c-2.058-0.124-6.062-0.295-10.051-0.628c-3.175-0.265-6.32-0.793-9.364-1.793   c-0.334-0.109-0.665-0.232-0.993-0.358c-0.692-0.267-0.782-0.396-0.743-1.145l1.2-11.75c0.77-6.36,4.459-9.887,10.601-11.154   c1.395-0.288,3.272-2.387,4.071-4.097c0.339,0.297,0.689,0.57,1.046,0.82l-0.621-0.503c2.005,1.617,4.317,2.467,6.769,2.474   c2.452-0.007,4.764-0.857,6.769-2.474l0.426-0.317c0.799,1.709,2.676,3.809,4.071,4.097c6.142,1.267,9.832,4.793,10.601,11.154   L55.055,58.611z"/></g></svg>