<?xml version="1.0" ?><!DOCTYPE svg  PUBLIC '-//W3C//DTD SVG 1.1//EN'  'http://www.w3.org/Graphics/SVG/1.1/DTD/svg11.dtd'><svg enable-background="new 0 0 128 128" height="128px" id="Layer_1" version="1.1" viewBox="0 0 128 128" width="128px" xml:space="preserve" xmlns="http://www.w3.org/2000/svg" xmlns:xlink="http://www.w3.org/1999/xlink"><g><path d="M14.075,52.999c3.695-0.081,7.047,1.188,10.029,3.804c2.559-3.005,5.402-5.956,8.564-8.778   c-1.137-3.735-1.924-7.228-2.449-10.444c-2.012-12.345-0.572-22.186,1.23-28.729C13.771,19.283,1.552,37.966,0.083,59.607   C3.8,56.332,8.743,53.157,14.075,52.999z"/><path d="M71.189,17.262c-2.447,2.935-3.176,6.782-2.248,11.673c14.326-3.561,30.344-3.862,47.922-0.89   c-4.895-7.194-11.225-13.326-18.566-18.014C90.889,9.68,76.844,10.474,71.189,17.262z"/><path d="M36.39,37.06c0.357,2.102,0.846,4.337,1.475,6.683c1.598-1.214,3.25-2.399,4.988-3.533   c6.234-4.064,12.947-7.254,20.117-9.574c-1.445-7.001-0.279-12.821,3.485-17.333c4.838-5.798,13.141-8.146,20.459-9.026   C79.775,1.524,72.025,0,63.915,0c-8.703,0-16.998,1.745-24.563,4.892C37.472,9.313,33.642,20.88,36.39,37.06z"/><path d="M70.699,34.867c9.471,23.323,44.992,35.426,56.549,38.344c0.434-3.009,0.67-6.082,0.67-9.211   c0-10.403-2.498-20.217-6.904-28.901C102.352,31.31,85.523,31.235,70.699,34.867z"/><path d="M34.886,54.406c-2.426,2.319-4.645,4.721-6.666,7.159c11.092,15.808,8.977,37.138,4.434,58.275   C41.899,125.029,52.558,128,63.915,128c9.841,0,19.161-2.227,27.491-6.194C57.968,96.507,42.097,73.001,34.886,54.406z"/><path d="M64.73,36.557c-6.608,2.148-12.782,5.091-18.506,8.823c-2.26,1.473-4.375,3.042-6.385,4.667   c6.549,18.317,22.178,42.313,57.532,68.516c14.141-8.688,24.637-22.717,28.695-39.278C112.07,75.935,74.686,62.028,64.73,36.557z"/><path d="M0.083,68.392c0.516,7.611,2.361,14.855,5.309,21.506c2.482-7.187,7.039-17.757,14.865-28.267   c-1.867-1.72-3.846-2.548-5.998-2.462C8.886,59.328,3.163,64.753,0.083,68.392z"/><path d="M24.235,66.738C15.036,79.64,10.892,92.442,9.474,97.644c4.555,7.354,10.561,13.71,17.613,18.684   C30.845,98.097,32.427,80.028,24.235,66.738z"/></g></svg>