<?xml version="1.0" encoding="UTF-8" standalone="no"?>
<svg
   xmlns:dc="http://purl.org/dc/elements/1.1/"
   xmlns:cc="http://creativecommons.org/ns#"
   xmlns:rdf="http://www.w3.org/1999/02/22-rdf-syntax-ns#"
   xmlns:svg="http://www.w3.org/2000/svg"
   xmlns="http://www.w3.org/2000/svg"
   xmlns:sodipodi="http://sodipodi.sourceforge.net/DTD/sodipodi-0.dtd"
   xmlns:inkscape="http://www.inkscape.org/namespaces/inkscape"
   enable-background="new 0 0 128 128"
   height="152"
   id="Layer_1"
   version="1.1"
   viewBox="0 0 151.83501 152"
   width="151.83501"
   xml:space="preserve"
   sodipodi:docname="sports.svg"
   inkscape:version="1.0.1 (c497b03c, 2020-09-10)"><metadata
     id="metadata933"><rdf:RDF><cc:Work
         rdf:about=""><dc:format>image/svg+xml</dc:format><dc:type
           rdf:resource="http://purl.org/dc/dcmitype/StillImage" /><dc:title></dc:title><dc:title></dc:title></cc:Work></rdf:RDF></metadata><defs
     id="defs931" /><sodipodi:namedview
     pagecolor="#ffffff"
     bordercolor="#666666"
     borderopacity="1"
     objecttolerance="10"
     gridtolerance="10"
     guidetolerance="10"
     inkscape:pageopacity="0"
     inkscape:pageshadow="2"
     inkscape:window-width="1786"
     inkscape:window-height="932"
     id="namedview929"
     showgrid="false"
     units="pc"
     lock-margins="true"
     fit-margin-top="12"
     fit-margin-left="12"
     fit-margin-right="12"
     fit-margin-bottom="12"
     inkscape:zoom="5.0394737"
     inkscape:cx="75.917503"
     inkscape:cy="76"
     inkscape:window-x="0"
     inkscape:window-y="25"
     inkscape:window-maximized="0"
     inkscape:current-layer="Layer_1" /><g
     id="g926"
     transform="translate(11.917,12)"><path
       d="m 14.075,52.999 c 3.695,-0.081 7.047,1.188 10.029,3.804 2.559,-3.005 5.402,-5.956 8.564,-8.778 C 31.531,44.29 30.744,40.797 30.219,37.581 28.207,25.236 29.647,15.395 31.449,8.852 13.771,19.283 1.552,37.966 0.083,59.607 3.8,56.332 8.743,53.157 14.075,52.999 Z"
       id="path910" /><path
       d="m 71.189,17.262 c -2.447,2.935 -3.176,6.782 -2.248,11.673 14.326,-3.561 30.344,-3.862 47.922,-0.89 C 111.968,20.851 105.638,14.719 98.297,10.031 90.889,9.68 76.844,10.474 71.189,17.262 Z"
       id="path912" /><path
       d="m 36.39,37.06 c 0.357,2.102 0.846,4.337 1.475,6.683 1.598,-1.214 3.25,-2.399 4.988,-3.533 C 49.087,36.146 55.8,32.956 62.97,30.636 61.525,23.635 62.691,17.815 66.455,13.303 71.293,7.505 79.596,5.157 86.914,4.277 79.775,1.524 72.025,0 63.915,0 55.212,0 46.917,1.745 39.352,4.892 37.472,9.313 33.642,20.88 36.39,37.06 Z"
       id="path914" /><path
       d="m 70.699,34.867 c 9.471,23.323 44.992,35.426 56.549,38.344 0.434,-3.009 0.67,-6.082 0.67,-9.211 0,-10.403 -2.498,-20.217 -6.904,-28.901 C 102.352,31.31 85.523,31.235 70.699,34.867 Z"
       id="path916" /><path
       d="m 34.886,54.406 c -2.426,2.319 -4.645,4.721 -6.666,7.159 11.092,15.808 8.977,37.138 4.434,58.275 9.245,5.189 19.904,8.16 31.261,8.16 9.841,0 19.161,-2.227 27.491,-6.194 C 57.968,96.507 42.097,73.001 34.886,54.406 Z"
       id="path918" /><path
       d="m 64.73,36.557 c -6.608,2.148 -12.782,5.091 -18.506,8.823 -2.26,1.473 -4.375,3.042 -6.385,4.667 6.549,18.317 22.178,42.313 57.532,68.516 14.141,-8.688 24.637,-22.717 28.695,-39.278 C 112.07,75.935 74.686,62.028 64.73,36.557 Z"
       id="path920" /><path
       d="M 0.083,68.392 C 0.599,76.003 2.444,83.247 5.392,89.898 7.874,82.711 12.431,72.141 20.257,61.631 18.39,59.911 16.411,59.083 14.259,59.169 8.886,59.328 3.163,64.753 0.083,68.392 Z"
       id="path922" /><path
       d="M 24.235,66.738 C 15.036,79.64 10.892,92.442 9.474,97.644 c 4.555,7.354 10.561,13.71 17.613,18.684 3.758,-18.231 5.34,-36.3 -2.852,-49.59 z"
       id="path924" /></g></svg>
