<?xml version="1.0" encoding="utf-8"?>
<!-- Generator: Adobe Illustrator 23.1.1, SVG Export Plug-In . SVG Version: 6.00 Build 0)  -->
<svg version="1.1" id="Layer_1" xmlns="http://www.w3.org/2000/svg" xmlns:xlink="http://www.w3.org/1999/xlink" x="0px" y="0px"
	 viewBox="0 0 432 432" style="enable-background:new 0 0 432 432;" xml:space="preserve">
<style type="text/css">
	.st0{fill:#185C5A;}
</style>
<path class="st0" d="M362.317,360.467c-97.274,0-194.39,0-291.691,0c0-97.287,0-194.407,0-291.701c97.281,0,194.399,0,291.691,0
	C362.317,166.041,362.317,263.162,362.317,360.467z M214.288,139.912c1.435,1.079,2.476,1.686,3.298,2.511
	c4.211,4.227,8.33,8.547,12.551,12.765c3.729,3.726,4.11,7.978,2.141,12.606c-0.775,1.822-1.977,3.475-2.638,5.329
	c-0.915,2.568-2.288,5.328-2.042,7.868c0.353,3.65,1.844,7.228,3.114,10.741c1.507,4.167,0.863,6.372-3.128,8.213
	c-2.697,1.244-5.685,1.917-8.253,3.36c-2.054,1.154-4.047,2.82-5.398,4.731c-2.264,3.204-1.314,6.871-0.371,10.362
	c1.374,5.09,0.477,7.667-3.832,10.766c-1.428,1.027-2.877,2.029-4.266,3.107c-9.417,7.311-18.763,14.716-28.296,21.872
	c-1.26,0.946-3.638,1.278-5.172,0.815c-4.258-1.285-8.337-3.161-12.501-4.764c-5.159-1.986-10.294-2.822-15.593-0.236
	c-1.55,0.756-3.488,1.105-5.222,1.03c-7.048-0.305-12.119,3.238-16.556,8.107c-7.232,7.936-14.422,15.911-21.834,24.095
	c14.759,16.618,29.754,33.457,48.015,47.339c3.307-4.301,6.34-8.357,9.492-12.318c4.324-5.434,8.373-11.15,13.186-16.12
	c12.794-13.212,26.85-25.236,37.24-40.665c3.275-4.863,6.832-9.541,10.392-14.203c1.974-2.585,4.838-3.196,6.751-1.761
	c1.82,1.366,1.838,3.774-0.243,6.648c-1.747,2.412-3.789,4.607-5.621,6.96c-1.641,2.107-3.249,4.248-4.735,6.465
	c-1.304,1.944-0.414,3.124,1.617,3.746c5.392,1.65,10.634,1.401,15.55-1.486c3.082-1.81,6.022-3.861,9.021-5.812
	c16-10.409,32.05-20.742,47.971-31.27c6.872-4.544,5.893-4.128,2.885-9.664c-0.142-0.261-0.233-0.549-0.348-0.824
	c-2.346-5.609-1.512-8.337,3.509-11.635c2.49-1.636,5.024-3.222,7.374-5.043c0.705-0.546,1.398-1.976,1.168-2.711
	c-1.113-3.561-2.542-7.024-3.959-10.787c-1.124,0.588-2.096,1.045-3.017,1.587c-3.599,2.118-7.146,4.326-10.79,6.362
	c-1.168,0.653-2.547,1.049-3.878,1.266c-2.313,0.377-3.839-0.877-4.568-2.954c-0.807-2.299,0.448-3.779,2.328-4.901
	c8.535-5.095,17.07-10.191,25.59-15.311c0.97-0.583,1.846-1.321,2.916-2.096c-4.508-6.021-8.754-11.776-13.094-17.459
	c-2.878-3.767-3.753-3.837-7.98-1.423c-6.639,3.792-13.284,7.576-19.969,11.285c-2.122,1.177-4.272,1.223-5.762-1.088
	c-1.481-2.297-0.971-4.418,1.082-6.08c1.226-0.993,2.61-1.814,3.994-2.587c10.842-6.056,21.704-12.077,32.55-18.126
	c0.727-0.405,1.377-0.949,2.643-1.835c-3.758-3.062-7.079-5.862-10.504-8.529c-3.149-2.453-6.718-3.673-10.792-3.655
	c-5.37,0.024-10.749-0.469-16.11-0.295c-4.231,0.138-8.67,0.266-12.616,1.591c-11.005,3.696-21.804,8.004-32.677,12.092
	C217.63,138.371,216.407,138.979,214.288,139.912z M240.006,273.617c1.588,1.161,2.884,1.826,3.813,2.83
	c8.306,8.978,16.345,18.211,24.869,26.973c6.99,7.185,14.509,13.86,21.885,20.661c0.571,0.526,2.097,0.677,2.791,0.297
	c3.127-1.714,6.304-3.436,9.12-5.601c12.229-9.404,22.259-20.993,32.061-32.788c0.289-0.348,0.444-0.808,0.529-0.969
	c-2.18-2.076-4.34-3.81-6.112-5.876c-10.81-12.605-21.568-25.255-32.248-37.971c-1.962-2.336-3.683-2.436-6.101-0.774
	c-5.075,3.487-10.279,6.786-15.43,10.162C263.809,258.016,252.433,265.472,240.006,273.617z M207.137,199.975
	c2.375-1.098,4.915-2.211,7.401-3.433c8.446-4.153,7.024-3.344,4.226-10.665c-1.575-4.121-1.615-4.176-5.95-3.535
	c-8.772,1.297-16.626-0.075-24.305-5.245c-11.355-7.645-23.421-14.233-35.153-21.323c-1.859-1.123-3.419-1.144-5.185,0.199
	c-3.085,2.346-6.241,4.605-9.456,6.77c-1.948,1.311-2.347,2.977-1.983,5.152c0.473,2.824,0.888,5.67,1.086,8.524
	c0.26,3.756,1.326,5.357,5.032,6.358c17.026,4.598,34.063,9.152,51.099,13.714C198.255,197.643,202.568,198.768,207.137,199.975z
	 M203.139,174.542c3.861-0.342,6.538-0.554,9.209-0.826c1.38-0.141,2.756-0.348,4.121-0.595c2.612-0.473,4.458-1.781,5.553-4.372
	c2.586-6.121,2.478-7.022-2.396-11.655c-0.721-0.685-1.457-1.358-2.141-2.079c-4.909-5.173-9.765-10.397-14.766-15.48
	c-0.559-0.568-1.984-0.661-2.888-0.453c-10.065,2.315-19.563,1.394-28.2-4.704c-1.466-1.035-2.639-0.825-4.008,0.25
	c-3.597,2.825-7.314,5.497-10.933,8.295c-2.414,1.866-2.333,3.08,0.364,4.713c5.439,3.294,10.944,6.478,16.394,9.753
	c7.911,4.753,15.91,9.376,23.626,14.428C199.418,173.349,201.382,174.956,203.139,174.542z M204.931,216.779
	c-0.266-5.963-1.452-7.816-5.883-9.032c-19.005-5.217-38.007-10.444-57.024-15.616c-6.378-1.735-7.809-0.833-9.509,5.687
	c-0.299,1.148-0.545,2.335-0.605,3.515c-0.341,6.631,3.398,11.294,9.942,12.541c4.375,0.834,8.743,1.705,13.113,2.567
	c13.524,2.67,27.04,5.381,40.573,8C201.593,225.613,205.191,222.603,204.931,216.779z M220.601,127.865
	c0.092,0.251,0.185,0.502,0.277,0.752c7.331-2.942,14.646-5.925,22.002-8.803c2.723-1.065,2.928-2.697,1.766-5.096
	c-1.164-2.404-2.21-4.882-3.092-7.402c-1.68-4.801-3.125-5.732-7.982-4.437c-17.927,4.78-35.709,10.208-54.281,12.075
	c-2.742,0.276-5.193,1.09-6.031,3.985c-0.846,2.92,0.405,5.72,2.712,7.071c3.789,2.218,7.913,4.131,12.141,5.237
	c3.016,0.789,6.844,0.989,9.591-0.204c7.203-3.126,14.85-5.849,19.305-13.311c0.727-1.218,3.703-1.432,5.613-1.364
	c0.47,0.017,1.457,3.112,1.113,4.525C223.142,123.327,221.691,125.552,220.601,127.865z M189.514,232.938
	c-1.102-0.39-1.715-0.691-2.363-0.824c-16.777-3.426-33.571-6.775-50.328-10.298c-3.283-0.69-5.591,0.191-7.509,2.77
	c-1.976,2.657-1.855,5.319-0.208,8.047c0.718,1.189,1.434,2.379,2.134,3.578c4.071,6.969,5.084,7.374,12.515,4.114
	c4.249-1.864,8.29-2,12.643-0.202c4.655,1.923,9.452,3.602,14.324,4.853c1.766,0.454,4.363-0.048,5.828-1.132
	C180.92,240.61,184.917,236.869,189.514,232.938z"/>
</svg>
