<?xml version="1.0" encoding="utf-8"?>
<!-- Generator: Adobe Illustrator 23.1.1, SVG Export Plug-In . SVG Version: 6.00 Build 0)  -->
<svg version="1.1" id="Layer_1" xmlns="http://www.w3.org/2000/svg" xmlns:xlink="http://www.w3.org/1999/xlink" x="0px" y="0px"
	 viewBox="0 0 216 216" style="enable-background:new 0 0 216 216;" xml:space="preserve">
<g>
	<g>
		<path class="st0" d="M115.74,138.87c1.31,1.33,2.48,2.44,3.55,3.63c1.9,2.13,3.66,4.39,5.64,6.45c1.38,1.44,2.96,2.81,4.49,4.09
			c0.79,0.66,6.78,5.85,5.84,6.78c-0.95,0.93-6.98-4.52-7.59-5.14c-4.42-4.51-8.86-9.01-13.28-13.51c-1.54-1.57-3.43-0.7-5.19-0.75
			c-0.93-0.03-1.94,0.26-2.76-0.04c-1.54-0.56-2.45,0.15-3.41,1.11c-3.94,3.95-7.91,7.87-11.83,11.84c-0.54,0.54-7.27,8.09-7.83,8.6
			c-0.38,0.35-1.12-0.23-1.49-0.42c-0.38-0.21,4.02-5.31,4.18-5.73c0.35-0.95,2.57-3.53,3.22-4.32c0.75-0.92,1.68-1.69,2.52-2.53
			c2.88-2.87,5.81-5.68,8.6-8.63c1.41-1.49,2.58-3.22,3.8-4.87c2.17-2.92,2.04-2.99,4.27-5.86c0.35-0.45,1.05-1.12,1.96-0.64
			c0.85,0.53,0.15,1.71-0.23,2.23c-1.74,2.34-1.48,1.61-3.26,3.93c-0.45,0.58-0.94,1.65-0.69,2.1c0.29,0.53,1.34,0.75,2.11,0.91
			c3.87,0.79,6.45-1.85,9.3-3.66c5.38-3.41,10.7-6.92,16.04-10.39c0.83-0.54,1.65-1.1,2.4-1.74c0.24-0.2,0.35-0.72,0.29-1.05
			c-0.09-0.44-0.4-0.84-0.61-1.27c-1.32-2.71-1.06-3.55,1.58-5.03c0.32-0.18,0.65-0.35,0.94-0.57c2.26-1.71,2.07-1.43,1.13-3.47
			c-0.15-0.33-0.26-0.69-0.35-1.04c-0.64-2.36-0.64-2.35-2.81-1.03c-1.16,0.71-2.36,1.35-3.5,2.08c-0.93,0.6-1.86,0.75-2.46-0.25
			c-0.61-1.02,0.35-1.45,1.07-1.88c3.15-1.87,6.29-3.74,9.43-5.63c0.26-0.16,0.48-0.38,0.97-0.76c-1.54-2.06-3.05-4.1-4.58-6.12
			c-1.89-2.48-1.88-2.45-4.54-0.86c-2.02,1.21-4.07,2.34-6.12,3.49c-0.78,0.44-1.73,1.02-2.31-0.09c-0.56-1.06,0.28-1.73,1.15-2.22
			c4.38-2.44,8.76-4.87,13.14-7.31c0.26-0.15,0.5-0.33,1.13-0.75c-3.07-1.85-4.92-5.16-9.04-4.84c-2.33,0.18-4.7-0.2-7.04-0.14
			c-1.28,0.03-2.58,0.35-3.8,0.73c-2.13,0.67-4.22,1.47-6.31,2.28c-2.36,0.91-4.7,1.87-7.36,2.94c1.16,1.08,2.2,1.98,3.16,2.96
			c1.27,1.3,2.58,2.59,3.68,4.03c0.42,0.55,0.5,1.56,0.35,2.28c-0.21,1-0.63,2.03-1.22,2.87c-1.65,2.38-1.01,4.66,0.11,6.95
			c0.8,1.64,0.61,2.39-1.02,3.1c-1.04,0.45-2.13,0.81-3.2,1.19c-1.21,0.42-2.42,2.38-2.28,3.8c0.08,0.78,0.13,1.59,0.39,2.31
			c0.59,1.6-0.1,2.5-1.36,3.41c-3.48,2.5-6.88,5.1-10.31,7.67c-0.25,0.19-0.48,0.41-0.69,0.64c-1.77,1.89-1.66,1.51-4.06,0.65
			c-2.86-1.02-5.75-3-9.1-1.35c-0.63,0.31-1.43,0.38-2.15,0.37c-2.84-0.05-4.71,1.6-6.44,3.54c-1.7,1.91-3.39,3.83-5.11,5.72
			c-0.34,0.38-2.58,2.64-3.03,2.74c-0.42,0.09-1.25-0.14-1.33-0.41c-0.15-0.49,1.73-3.1,2.05-3.47c2.1-2.4,4.29-4.72,6.45-7.06
			c0.21-0.23,0.45-0.43,0.68-0.65c2.33-2.25,2.56-2.39,0.94-5.2c-1.65-2.86-0.67-5.08,0.92-7.34c0.78-1.11,0.93-2.06,0.17-3.29
			c-0.88-1.42-0.92-3.13-0.04-4.51c2.2-3.47,2.26-7.15,1.51-10.97c-0.29-1.49,0.22-2.44,1.51-3.26c1.45-0.92,2.76-2.05,4.07-3.16
			c0.36-0.3,0.57-0.85,0.7-1.32c0.52-1.83,1.48-3.32,3.1-4.37c1.09-0.71,2.21-1.39,3.26-2.16c0.3-0.23,0.47-0.73,0.55-1.13
			c0.07-0.34-0.1-0.72-0.11-1.08c-0.1-2.94,1.51-4.65,4.52-5.15c3.49-0.58,6.94-1.33,10.41-2.03c1.07-0.22,2.14-0.48,3.2-0.75
			c2.97-0.77,5.93-1.59,8.91-2.31c0.74-0.18,1.56-0.17,2.33-0.07c1.16,0.14,1.6,0.69,1.47,2.05c-0.12,1.15,0.37,2.4,0.76,3.55
			c0.96,2.82,3.28,3,5.78,2.94c2.97-0.07,5.95-0.01,8.92,0.09c0.56,0.02,1.19,0.39,1.65,0.76c1.53,1.25,2.94,2.65,4.51,3.85
			c2.52,1.93,2.47,3.6-0.28,5.1c-2.75,1.49-2.73,1.47-0.83,3.93c1.47,1.9,2.89,3.85,4.28,5.81c1.24,1.74,0.9,3.08-0.97,4.11
			c-0.46,0.25-0.91,0.51-1.36,0.78c-0.91,0.54-1.1,1.1-0.53,2.16c0.72,1.31,1.22,2.78,1.57,4.25c0.32,1.33,0.1,2.46-1.54,3.11
			c-1.14,0.46-2.16,1.47-2.94,2.47c-0.32,0.41-0.02,1.51,0.3,2.16c0.68,1.39,1.87,2.65,0.38,4.24c-0.12,0.13,0.15,0.79,0.39,1.08
			c3.2,3.8,6.43,7.57,9.64,11.35c1.01,1.19,2.07,2.36,2.93,3.66c0.84,0.37,0.84,1.5,0.17,1.94c-0.75,0.98-1.66,0.01-2.02-0.39
			c-3.31-3.77-6.51-7.64-9.75-11.48c-0.98-1.16-1.92-2.35-2.93-3.47c-0.56-0.62-1.14-1.15-2.14-0.49
			c-6.14,4.06-12.31,8.07-18.47,12.09C116.34,138.49,116.12,138.63,115.74,138.87z M103.78,112.25c0.3-0.04,0.48-0.03,0.61-0.09
			c1.53-0.73,3.08-1.43,4.55-2.25c0.31-0.17,0.57-0.92,0.45-1.28c-0.4-1.28-0.97-2.5-1.5-3.73c-0.01-0.03-0.19,0.02-0.3,0.03
			c-1.41,0.11-2.81,0.21-4.21,0.33c-1.72,0.14-3.22-0.27-4.71-1.27c-2.84-1.89-5.83-3.56-8.76-5.32c-0.76-0.45-1.53-0.89-2.29-1.35
			c-1.29-0.78-2.56-1.61-3.88-2.33c-0.33-0.18-0.95-0.13-1.27,0.08c-1.4,0.91-2.74,1.92-4.08,2.91c-0.79,0.58-1.08,1.25-0.71,2.3
			c0.32,0.91,0.39,1.95,0.37,2.93c-0.03,1.56,0.61,2.37,2.14,2.77c6.35,1.65,12.68,3.38,19.02,5.08
			C100.78,111.47,102.34,111.87,103.78,112.25z M102.4,88.87c-0.15-0.01-0.26-0.06-0.35-0.03c-3.95,1.17-7.7,0.97-11.15-1.53
			c-0.29-0.21-0.91-0.37-1.14-0.21c-1.81,1.28-3.59,2.61-5.3,4.02c-0.21,0.17-0.1,1.21,0.16,1.39c1.96,1.27,3.99,2.43,6,3.61
			c3.44,2.03,7.23,3.49,10.18,6.34c0.31,0.3,0.94,0.41,1.42,0.4c1.4-0.05,2.81-0.15,4.2-0.34c1.31-0.18,2.67-0.23,3.32-1.85
			c1.09-2.73,1.17-2.7-0.85-4.81c-0.29-0.3-0.65-0.53-0.93-0.84C106.14,92.98,103.6,91.6,102.4,88.87z M103.57,118.43
			c-0.03-0.19-0.14-0.61-0.14-1.02c0.03-1.9-0.98-2.67-2.77-3.06c-2.65-0.57-5.23-1.43-7.85-2.15c-4.62-1.28-9.25-2.52-13.86-3.83
			c-1.17-0.33-1.74-0.04-2.28,1.11c-0.93,1.96-1.2,3.68-0.15,5.75c0.63,1.24,1.24,1.8,2.56,2.04c4.05,0.72,8.08,1.58,12.12,2.38
			c3.05,0.6,6.1,1.24,9.17,1.78C101.96,121.72,103.63,120.2,103.57,118.43z M108.12,85.6c0.07,0.12,0.14,0.25,0.21,0.37
			c0.59-0.14,1.19-0.23,1.76-0.44c2-0.73,4-1.49,5.99-2.27c0.53-0.21,1.04-0.49,1.55-0.75c0.99-0.49,1.24-1.11,0.56-2.12
			c-0.46-0.68-0.81-1.48-1.02-2.27c-0.72-2.6-1.41-2.99-4.05-2.27c-4.02,1.1-8.02,2.26-12.08,3.19c-2.53,0.58-5.16,0.7-7.72,1.17
			c-2.29,0.41-2.94,2.24-1.61,4.17c1.41,2.05,6.96,3.56,9.17,2.42c2.56-1.33,5.46-2.19,6.96-5.06c0.19-0.37,1.1-0.5,1.88-0.42
			c0.35,0.63,0.16,1.37-0.07,1.93C109.27,84.09,108.64,84.82,108.12,85.6z M98.3,123.86c-0.83-0.23-1.22-0.37-1.62-0.45
			c-6.19-1.25-12.39-2.46-18.56-3.77c-1.45-0.31-2.3-0.08-3.22,1.23c-0.99,1.41-0.54,2.5,0.13,3.6c2.36,3.9,2.27,4.21,6.44,2.38
			c0.74-0.32,1.99-0.37,2.45-0.19c2.03,0.82,3.05,1.05,4.5,1.75c2.07,0.63,3.42,1.06,4.83-0.22c0.78-0.71,2.21-2.01,3.05-2.63
			C96.91,125.1,97.47,124.58,98.3,123.86z"/>
		<path class="st0" d="M83.07,162.41c-0.42,0-0.86-0.27-1.17-0.46c-0.07-0.05-0.14-0.09-0.2-0.12l-0.15-0.08l-0.06-0.2
			c-0.07-0.36,0.27-0.92,2.83-4.11c0.61-0.76,1.31-1.63,1.39-1.79c0.29-0.8,1.67-2.48,2.93-4l0.34-0.41
			c0.52-0.64,1.13-1.21,1.72-1.76c0.28-0.26,0.56-0.52,0.82-0.79c0.81-0.81,1.62-1.61,2.44-2.41c2.04-2.01,4.16-4.09,6.16-6.21
			c1.1-1.16,2.07-2.5,3.01-3.79c0.25-0.35,0.51-0.7,0.76-1.05c0.93-1.25,1.43-1.98,1.88-2.62c0.6-0.86,1.11-1.6,2.39-3.24
			c0.7-0.91,1.58-1.18,2.41-0.74c0.32,0.2,0.51,0.47,0.57,0.8c0.14,0.73-0.37,1.54-0.68,1.96c-0.92,1.23-1.29,1.63-1.69,2.05
			c-0.36,0.38-0.73,0.78-1.58,1.88c-0.48,0.63-0.78,1.49-0.66,1.71c0.22,0.39,1.29,0.61,1.86,0.73c2.97,0.6,5.12-0.91,7.4-2.51
			c0.54-0.38,1.08-0.76,1.63-1.11c4.25-2.7,8.54-5.5,12.69-8.2l3.36-2.19c0.74-0.48,1.6-1.06,2.36-1.71
			c0.11-0.09,0.21-0.47,0.17-0.71c-0.05-0.24-0.19-0.48-0.34-0.75c-0.08-0.14-0.17-0.28-0.24-0.43c-1.41-2.89-1.09-3.92,1.72-5.5
			l0.17-0.09c0.26-0.14,0.51-0.28,0.73-0.45l0.31-0.23c1.51-1.13,1.51-1.13,0.96-2.27l-0.25-0.53c-0.17-0.37-0.28-0.76-0.37-1.09
			c-0.22-0.82-0.43-1.58-0.6-1.65c-0.19-0.08-0.86,0.34-1.64,0.82c-0.49,0.3-0.97,0.57-1.44,0.85c-0.7,0.4-1.39,0.8-2.07,1.24
			c-0.7,0.45-1.33,0.62-1.87,0.49c-0.44-0.1-0.81-0.39-1.09-0.86c-0.22-0.38-0.3-0.74-0.21-1.07c0.15-0.58,0.72-0.91,1.23-1.2
			l0.18-0.11c3.15-1.87,6.29-3.74,9.43-5.62c0.15-0.09,0.29-0.21,0.48-0.37c0.05-0.04,0.11-0.09,0.17-0.14l-1.17-1.57
			c-1.07-1.43-2.13-2.85-3.2-4.26c-1.67-2.2-1.67-2.2-3.99-0.81l-0.08,0.05c-1.67,1-3.41,1.97-5.08,2.91l-1.05,0.59
			c-0.65,0.37-1.3,0.73-1.95,0.54c-0.35-0.1-0.64-0.37-0.86-0.78c-0.8-1.53,0.78-2.41,1.3-2.7l13.14-7.31
			c0.16-0.09,0.3-0.19,0.53-0.35c0.04-0.02,0.07-0.05,0.11-0.08c-0.79-0.53-1.5-1.14-2.19-1.73c-1.79-1.53-3.47-2.97-6.17-2.76
			c-1.32,0.1-2.68,0.03-3.99-0.05c-1.01-0.06-2.06-0.12-3.07-0.09c-1.07,0.03-2.24,0.25-3.7,0.72c-2.18,0.69-4.36,1.53-6.29,2.27
			c-1.64,0.63-3.27,1.29-5.01,1.99l-1.81,0.73c0.22,0.21,0.44,0.41,0.66,0.6c0.74,0.67,1.44,1.31,2.1,1.98l0.4,0.41
			c1.14,1.15,2.31,2.35,3.3,3.66c0.51,0.67,0.57,1.81,0.41,2.58c-0.22,1.07-0.67,2.14-1.27,3c-1.59,2.3-0.87,4.52,0.14,6.58
			c0.49,1,0.61,1.67,0.4,2.24c-0.2,0.54-0.69,0.96-1.6,1.35c-0.95,0.41-1.95,0.75-2.91,1.09l-0.32,0.11
			c-1.08,0.37-2.16,2.2-2.04,3.42l0.03,0.31c0.06,0.65,0.13,1.33,0.34,1.91c0.71,1.92-0.3,2.97-1.48,3.83
			c-2.61,1.87-5.22,3.84-7.75,5.75l-2.55,1.92c-0.24,0.18-0.46,0.4-0.64,0.6c-1.62,1.74-1.9,1.72-3.58,1.07
			c-0.25-0.1-0.54-0.21-0.87-0.33c-0.57-0.2-1.15-0.45-1.73-0.69c-2.24-0.95-4.55-1.92-7.09-0.67c-0.58,0.29-1.39,0.41-2.32,0.41
			c-0.04,0-0.08,0-0.12,0c-2.49,0-4.22,1.37-6.04,3.42l-1.17,1.32c-1.31,1.47-2.62,2.95-3.94,4.4c-0.02,0.03-2.56,2.71-3.22,2.85
			c-0.48,0.1-1.58-0.11-1.75-0.66c-0.25-0.8,2.1-3.78,2.13-3.81c1.64-1.87,3.36-3.73,5.02-5.52l1.43-1.55
			c0.14-0.16,0.3-0.3,0.46-0.44l0.38-0.36c2.18-2.11,2.18-2.11,0.74-4.62c-1.78-3.09-0.61-5.54,0.94-7.72
			c0.75-1.06,0.79-1.87,0.15-2.89c-0.96-1.55-0.97-3.43-0.04-4.89c1.88-2.97,2.33-6.27,1.45-10.7c-0.31-1.58,0.2-2.71,1.67-3.64
			c1.37-0.87,2.66-1.96,3.9-3.02l0.14-0.12c0.23-0.19,0.43-0.58,0.59-1.15c0.58-2.03,1.64-3.53,3.25-4.58l0.81-0.52
			c0.81-0.52,1.65-1.05,2.43-1.63c0.17-0.12,0.32-0.46,0.41-0.92c0.03-0.13-0.01-0.31-0.05-0.5c-0.03-0.17-0.06-0.33-0.07-0.5
			c-0.11-3.07,1.56-4.98,4.82-5.52c2.62-0.43,5.28-0.98,7.85-1.51c0.85-0.17,1.7-0.35,2.55-0.52c1.14-0.23,2.24-0.51,3.18-0.75
			c1.02-0.26,2.04-0.53,3.05-0.8c1.92-0.51,3.9-1.04,5.87-1.51c0.7-0.17,1.52-0.2,2.46-0.08c1.38,0.17,1.93,0.92,1.78,2.44
			c-0.1,0.95,0.27,2.01,0.62,3.04l0.12,0.36c0.88,2.58,2.97,2.75,5.43,2.7c2.6-0.06,5.36-0.03,8.94,0.09
			c0.75,0.03,1.49,0.54,1.87,0.84c0.67,0.54,1.31,1.12,1.95,1.69c0.82,0.73,1.67,1.48,2.55,2.16c1.4,1.08,2.05,2.08,1.97,3.07
			c-0.07,0.97-0.83,1.83-2.3,2.63c-1.15,0.63-1.91,1.04-1.98,1.36c-0.07,0.32,0.44,0.97,1.2,1.96l0.06,0.08
			c1.28,1.66,2.6,3.45,4.29,5.82c0.67,0.94,0.92,1.81,0.75,2.59c-0.18,0.8-0.78,1.47-1.84,2.05c-0.45,0.25-0.91,0.51-1.35,0.77
			c-0.7,0.41-0.9,0.74-0.39,1.67c0.66,1.21,1.2,2.67,1.61,4.33c0.42,1.74-0.15,2.89-1.76,3.53c-1.15,0.46-2.15,1.53-2.79,2.35
			c-0.15,0.19-0.02,1.05,0.34,1.78c0.11,0.23,0.24,0.46,0.36,0.68c0.63,1.13,1.34,2.4,0.03,3.89c0.03,0.16,0.18,0.5,0.33,0.68
			c1.94,2.3,3.89,4.59,5.83,6.88c1.27,1.49,2.54,2.98,3.8,4.48l0.53,0.62c0.81,0.95,1.66,1.93,2.37,2.99
			c0.44,0.23,0.72,0.66,0.76,1.17c0.04,0.53-0.18,1.03-0.58,1.32c-0.27,0.33-0.59,0.51-0.95,0.52c-0.01,0-0.03,0-0.04,0
			c-0.65,0-1.19-0.54-1.55-0.94c-2.59-2.95-5.16-6.01-7.64-8.97l-2.11-2.51c-0.31-0.37-0.61-0.73-0.91-1.1
			c-0.65-0.78-1.32-1.6-2.01-2.36c-0.61-0.68-0.98-0.89-1.68-0.43c-4.7,3.11-9.43,6.2-14.16,9.28l-4.76,3.1
			c0.31,0.31,0.61,0.61,0.9,0.9c0.83,0.82,1.61,1.6,2.34,2.42c0.76,0.85,1.49,1.72,2.23,2.59c1.09,1.29,2.22,2.62,3.4,3.85
			c1.42,1.48,3.05,2.89,4.47,4.06c0.25,0.21,6,5.03,6.07,6.75c0.01,0.28-0.11,0.46-0.21,0.56c-0.41,0.4-1.25,0.48-4.4-1.96
			c-1.69-1.32-3.36-2.83-3.7-3.19c-3.11-3.17-6.22-6.33-9.33-9.49l-3.95-4.02c-1-1.01-2.18-0.88-3.43-0.74
			c-0.49,0.05-1.01,0.11-1.51,0.1c-0.33-0.01-0.64,0.02-0.96,0.05c-0.65,0.06-1.31,0.11-1.92-0.1c-1.25-0.45-2-0.01-3.03,1.03
			c-1.53,1.53-3.06,3.06-4.59,4.59c-2.42,2.41-4.83,4.82-7.23,7.25c-0.21,0.21-1.42,1.56-2.83,3.12c-2.64,2.93-4.69,5.2-5.02,5.49
			C83.44,162.35,83.26,162.41,83.07,162.41z M82.29,161.33c0.47,0.29,0.75,0.41,0.83,0.33c0.32-0.29,3-3.27,4.96-5.44
			c1.47-1.63,2.63-2.92,2.85-3.14c2.4-2.43,4.82-4.84,7.24-7.25c1.53-1.53,3.06-3.06,4.59-4.59c0.95-0.95,2.02-1.84,3.79-1.2
			c0.46,0.17,1.02,0.12,1.61,0.06c0.35-0.03,0.7-0.06,1.04-0.05c0.44,0.02,0.92-0.04,1.41-0.09c1.31-0.14,2.79-0.31,4.03,0.95
			l3.95,4.02c3.11,3.16,6.22,6.32,9.33,9.49c1.4,1.43,6.33,5.51,7.08,5.13c0.17-0.61-2.99-3.86-5.83-6.23
			c-1.43-1.19-3.08-2.61-4.52-4.12c-1.2-1.25-2.33-2.59-3.43-3.89c-0.73-0.86-1.46-1.73-2.22-2.57c-0.72-0.8-1.49-1.58-2.31-2.39
			c-0.39-0.39-0.8-0.8-1.22-1.23l-0.31-0.32l1.2-0.76l4.31-2.82c4.73-3.08,9.45-6.16,14.15-9.28c1.32-0.87,2.13,0.01,2.61,0.55
			c0.7,0.78,1.38,1.59,2.03,2.38c0.3,0.37,0.6,0.73,0.91,1.09l2.11,2.51c2.48,2.95,5.05,6.01,7.63,8.96c0.4,0.46,0.74,0.7,1.01,0.7
			c0.08,0,0.23,0.01,0.45-0.28l0.09-0.08c0.21-0.14,0.33-0.41,0.31-0.69c-0.01-0.13-0.07-0.45-0.43-0.61l-0.1-0.04l-0.06-0.09
			c-0.7-1.05-1.55-2.04-2.37-3l-0.53-0.63c-1.27-1.49-2.54-2.98-3.8-4.47c-1.95-2.29-3.9-4.58-5.84-6.88
			c-0.11-0.14-0.78-1.13-0.38-1.56c1.06-1.13,0.57-2.01-0.06-3.12c-0.13-0.24-0.26-0.47-0.38-0.72c-0.3-0.61-0.73-1.93-0.26-2.54
			c0.69-0.89,1.79-2.06,3.09-2.58c1.26-0.51,1.66-1.31,1.32-2.69c-0.39-1.6-0.91-3-1.54-4.16c-0.65-1.19-0.46-1.98,0.66-2.64
			c0.45-0.27,0.91-0.53,1.37-0.78c0.85-0.47,1.35-1,1.48-1.58c0.13-0.57-0.08-1.24-0.63-2.01c-1.68-2.36-3-4.15-4.27-5.8l-0.06-0.08
			c-0.98-1.27-1.47-1.91-1.33-2.55c0.14-0.65,0.82-1.02,2.33-1.84c1.24-0.67,1.88-1.36,1.94-2.06c0.06-0.72-0.51-1.54-1.69-2.44
			c-0.9-0.69-1.76-1.45-2.59-2.19c-0.63-0.57-1.27-1.13-1.93-1.67c-0.51-0.41-1.04-0.67-1.43-0.68c-3.57-0.12-6.32-0.15-8.91-0.09
			c-2.55,0.06-5.1-0.14-6.13-3.19l-0.12-0.36c-0.38-1.1-0.77-2.24-0.66-3.35c0.13-1.26-0.29-1.54-1.15-1.65
			c-0.85-0.1-1.59-0.08-2.2,0.06c-1.96,0.47-3.94,1-5.85,1.51c-1.02,0.27-2.04,0.54-3.06,0.8c-0.94,0.24-2.06,0.53-3.22,0.76
			c-0.85,0.17-1.7,0.35-2.55,0.52c-2.57,0.53-5.24,1.08-7.87,1.51c-2.89,0.48-4.31,2.09-4.21,4.78c0,0.12,0.03,0.25,0.06,0.38
			c0.05,0.24,0.1,0.51,0.05,0.79c-0.14,0.66-0.37,1.11-0.69,1.35c-0.8,0.6-1.65,1.14-2.48,1.66l-0.8,0.51
			c-1.46,0.94-2.42,2.31-2.95,4.17c-0.2,0.72-0.47,1.21-0.82,1.5l-0.14,0.12c-1.26,1.07-2.56,2.18-3.98,3.08
			c-1.21,0.77-1.6,1.6-1.34,2.88c0.92,4.63,0.44,8.1-1.56,11.23c-0.79,1.25-0.78,2.79,0.05,4.13c0.8,1.29,0.74,2.39-0.18,3.69
			c-1.67,2.36-2.4,4.35-0.9,6.95c1.68,2.9,1.47,3.24-0.86,5.5l-0.39,0.37c-0.14,0.13-0.29,0.26-0.42,0.4l-1.43,1.55
			c-1.66,1.79-3.38,3.64-5.01,5.5c-0.39,0.44-1.85,2.55-1.97,3.1c0.16,0.11,0.64,0.24,0.89,0.18c0.37-0.14,2.31-2.05,2.84-2.63
			c1.32-1.46,2.63-2.93,3.93-4.4l1.17-1.32c1.95-2.19,3.82-3.66,6.58-3.66c0.09,0,0.18,0,0.28,0c0.78,0,1.4-0.11,1.85-0.33
			c2.84-1.4,5.31-0.36,7.69,0.65c0.57,0.24,1.13,0.48,1.69,0.68c0.34,0.12,0.64,0.24,0.89,0.33c1.44,0.56,1.43,0.56,2.79-0.89
			c0.2-0.22,0.45-0.47,0.74-0.68l2.55-1.92c2.53-1.91,5.15-3.88,7.76-5.76c1.17-0.84,1.74-1.59,1.23-2.99
			c-0.25-0.67-0.31-1.39-0.38-2.09l-0.03-0.31c-0.16-1.55,1.14-3.7,2.52-4.18l0.32-0.11c0.95-0.33,1.93-0.66,2.86-1.07
			c0.7-0.3,1.09-0.6,1.21-0.94c0.13-0.36,0.02-0.87-0.37-1.67c-1.11-2.26-1.89-4.71-0.09-7.32c0.55-0.79,0.96-1.76,1.16-2.74
			c0.13-0.63,0.06-1.54-0.28-1.99c-0.96-1.28-2.12-2.45-3.24-3.59l-0.4-0.41c-0.65-0.66-1.34-1.29-2.07-1.95
			c-0.35-0.32-0.71-0.65-1.08-1l-0.42-0.39l2.87-1.16c1.74-0.7,3.37-1.36,5.02-2c1.93-0.74,4.13-1.59,6.33-2.28
			c1.53-0.48,2.77-0.72,3.9-0.75c1.06-0.02,2.11,0.03,3.13,0.09c1.28,0.07,2.61,0.15,3.89,0.05c2.99-0.23,4.87,1.38,6.69,2.94
			c0.8,0.69,1.64,1.4,2.56,1.96l0.49,0.29l-0.47,0.32c-0.23,0.16-0.41,0.28-0.56,0.38c-0.25,0.18-0.42,0.29-0.59,0.38l-13.14,7.31
			c-1.23,0.69-1.3,1.19-1.01,1.73c0.12,0.23,0.26,0.37,0.42,0.42c0.35,0.1,0.86-0.19,1.32-0.44l1.12-0.63
			c1.67-0.93,3.4-1.9,5.06-2.9l0.08-0.05c2.74-1.64,2.97-1.59,4.94,1c1.07,1.41,2.13,2.83,3.2,4.27l1.59,2.13l-0.28,0.22
			c-0.17,0.14-0.31,0.25-0.43,0.35c-0.23,0.19-0.39,0.33-0.57,0.43c-3.14,1.88-6.29,3.76-9.43,5.63l-0.19,0.11
			c-0.38,0.22-0.82,0.47-0.89,0.76c-0.04,0.14,0,0.31,0.13,0.51c0.18,0.3,0.38,0.47,0.63,0.53c0.34,0.08,0.8-0.06,1.32-0.39
			c0.69-0.44,1.4-0.86,2.1-1.26c0.47-0.27,0.94-0.55,1.41-0.83c1.24-0.75,1.79-1.09,2.31-0.89c0.51,0.2,0.67,0.8,1.03,2.12
			c0.09,0.34,0.19,0.68,0.34,1l0.24,0.52c0.78,1.63,0.63,1.8-1.18,3.16l-0.3,0.23c-0.26,0.2-0.54,0.35-0.81,0.5l-0.17,0.09
			c-2.46,1.38-2.66,2.02-1.43,4.55c0.06,0.13,0.14,0.25,0.21,0.38c0.18,0.3,0.36,0.61,0.43,0.97c0.08,0.43-0.06,1.1-0.41,1.39
			c-0.79,0.68-1.68,1.28-2.43,1.77l-3.36,2.19c-4.15,2.71-8.44,5.51-12.69,8.21c-0.54,0.34-1.07,0.71-1.6,1.09
			c-2.3,1.62-4.68,3.29-7.96,2.62c-0.83-0.17-1.97-0.4-2.35-1.09c-0.41-0.74,0.41-2.09,0.72-2.5c0.87-1.13,1.25-1.54,1.63-1.94
			c0.38-0.4,0.74-0.79,1.63-1.99c0.31-0.42,0.62-1.01,0.55-1.4c-0.02-0.13-0.09-0.23-0.22-0.31c-0.48-0.25-0.99-0.07-1.48,0.56
			c-1.27,1.63-1.78,2.37-2.37,3.21c-0.45,0.65-0.96,1.38-1.9,2.64c-0.25,0.34-0.51,0.69-0.76,1.04c-0.95,1.31-1.94,2.67-3.07,3.86
			c-2.01,2.13-4.13,4.21-6.17,6.23c-0.81,0.8-1.63,1.6-2.43,2.41c-0.27,0.27-0.56,0.54-0.84,0.81c-0.57,0.54-1.16,1.09-1.65,1.69
			l-0.34,0.41c-0.82,0.99-2.53,3.04-2.81,3.8c-0.07,0.18-0.36,0.56-1.5,1.98C84.03,158.97,82.63,160.71,82.29,161.33z M91.22,129.38
			c-0.85,0-1.77-0.28-2.84-0.61l-0.11-0.04c-0.82-0.39-1.48-0.63-2.32-0.93c-0.61-0.22-1.29-0.46-2.16-0.81
			c-0.34-0.14-1.5-0.11-2.17,0.18c-4.14,1.81-4.45,1.54-6.56-1.95l-0.34-0.57c-0.66-1.08-1.26-2.37-0.12-4
			c0.96-1.37,1.91-1.73,3.59-1.37c4.31,0.92,8.71,1.8,12.96,2.65c1.87,0.37,3.73,0.75,5.6,1.12c0.27,0.05,0.53,0.13,0.9,0.24
			c0.21,0.06,0.45,0.13,0.75,0.21l0.65,0.18l-0.52,0.44c-0.28,0.24-0.52,0.45-0.75,0.65c-0.46,0.4-0.85,0.75-1.27,1.06
			c-0.86,0.64-2.37,2.02-3.02,2.61C92.75,129.13,92.01,129.38,91.22,129.38z M83.13,126.18c0.37,0,0.71,0.04,0.94,0.14
			c0.86,0.35,1.53,0.59,2.13,0.8c0.82,0.29,1.54,0.55,2.39,0.96c1.98,0.6,3.18,0.97,4.43-0.16c0.65-0.59,2.19-1.99,3.07-2.65
			c0.39-0.29,0.76-0.62,1.22-1.02c0.08-0.07,0.16-0.14,0.25-0.22c-0.04-0.01-0.07-0.02-0.11-0.03c-0.35-0.1-0.59-0.17-0.84-0.22
			c-1.87-0.38-3.73-0.75-5.6-1.12c-4.25-0.85-8.65-1.73-12.97-2.65c-1.39-0.29-2.06-0.04-2.85,1.08c-0.81,1.15-0.57,2.02,0.15,3.21
			l0.35,0.57c1.97,3.27,1.97,3.28,5.64,1.66C81.82,126.3,82.52,126.18,83.13,126.18z M100.76,121.83c-0.15,0-0.3-0.01-0.45-0.04
			c-2.33-0.41-4.69-0.88-6.97-1.34l-2.21-0.44c-1.24-0.25-2.48-0.5-3.72-0.75c-2.75-0.56-5.59-1.13-8.39-1.63
			c-1.38-0.25-2.12-0.83-2.82-2.23c-1-1.99-0.96-3.75,0.15-6.07c0.63-1.31,1.38-1.68,2.71-1.3c3.04,0.86,6.09,1.69,9.14,2.53
			c1.57,0.43,3.15,0.86,4.72,1.3c0.84,0.23,1.67,0.47,2.5,0.72c1.74,0.51,3.54,1.04,5.33,1.43c1.44,0.31,3.1,0.98,3.06,3.42
			c0,0.26,0.05,0.54,0.09,0.75c0.02,0.08,0.03,0.16,0.04,0.21l0,0.04c0.03,0.97-0.41,1.95-1.18,2.62
			C102.16,121.56,101.45,121.83,100.76,121.83z M78.18,108.61c-0.52,0-0.83,0.3-1.18,1.03c-1,2.1-1.05,3.67-0.16,5.43
			c0.61,1.21,1.15,1.64,2.3,1.84c2.81,0.5,5.66,1.08,8.41,1.63c1.24,0.25,2.48,0.5,3.72,0.75l2.21,0.44
			c2.27,0.46,4.63,0.93,6.95,1.34c0.61,0.11,1.29-0.1,1.84-0.58c0.61-0.53,0.95-1.28,0.93-2.03c-0.01-0.04-0.02-0.09-0.03-0.15
			c-0.05-0.22-0.11-0.56-0.11-0.9c0.03-1.55-0.67-2.31-2.49-2.7c-1.82-0.39-3.63-0.92-5.38-1.44c-0.83-0.24-1.66-0.49-2.49-0.72
			c-1.57-0.44-3.15-0.87-4.72-1.3c-3.05-0.84-6.1-1.67-9.14-2.53C78.59,108.65,78.37,108.61,78.18,108.61z M103.75,112.62
			l-1.48-0.39c-1.02-0.27-2.09-0.54-3.15-0.83c-1.89-0.5-3.77-1.01-5.66-1.52c-4.38-1.18-8.9-2.4-13.36-3.55
			c-1.7-0.44-2.44-1.41-2.41-3.13c0.02-1.16-0.09-2.08-0.35-2.81c-0.4-1.14-0.13-2,0.83-2.71l0.47-0.35
			c1.17-0.86,2.39-1.76,3.63-2.57c0.44-0.29,1.2-0.33,1.64-0.09c0.93,0.5,1.84,1.07,2.72,1.61c0.39,0.24,0.78,0.49,1.18,0.72
			c0.39,0.24,0.79,0.47,1.19,0.7c0.37,0.21,0.74,0.43,1.1,0.65c0.84,0.5,1.68,1,2.53,1.5c2.07,1.22,4.21,2.47,6.24,3.83
			c1.44,0.96,2.86,1.34,4.48,1.21c0.94-0.08,1.88-0.15,2.82-0.22l1.4-0.11c0.03,0,0.06-0.01,0.1-0.02c0.15-0.03,0.43-0.08,0.56,0.19
			l0.36,0.85c0.41,0.95,0.83,1.93,1.15,2.93c0.17,0.53-0.17,1.46-0.62,1.71c-1.17,0.65-2.4,1.23-3.58,1.79l-0.99,0.47
			c-0.14,0.07-0.29,0.08-0.46,0.09c-0.07,0.01-0.16,0.01-0.26,0.03L103.75,112.62z M83.22,95.24c-0.2,0-0.43,0.05-0.55,0.13
			c-1.22,0.8-2.43,1.69-3.59,2.55l-0.47,0.35c-0.71,0.52-0.87,1.05-0.58,1.89c0.29,0.82,0.41,1.8,0.39,3.06
			c-0.03,1.38,0.5,2.06,1.87,2.41c4.47,1.16,8.99,2.38,13.37,3.56c1.89,0.51,3.77,1.02,5.66,1.52c1.06,0.28,2.12,0.56,3.14,0.83
			l1.35,0.35c0.08-0.01,0.16-0.02,0.23-0.02c0.08-0.01,0.18-0.01,0.2-0.03l1-0.47c1.18-0.56,2.39-1.13,3.54-1.77
			c0.15-0.08,0.35-0.65,0.29-0.86c-0.31-0.97-0.72-1.93-1.12-2.86l-0.25-0.59c-0.01,0-0.03,0-0.04,0l-1.4,0.11
			c-0.94,0.07-1.88,0.14-2.82,0.22c-1.78,0.15-3.36-0.27-4.94-1.33c-2.01-1.34-4.15-2.6-6.21-3.81c-0.85-0.5-1.69-1-2.54-1.5
			c-0.36-0.22-0.73-0.43-1.09-0.64c-0.4-0.23-0.8-0.47-1.2-0.7c-0.4-0.24-0.79-0.48-1.18-0.73c-0.87-0.54-1.77-1.1-2.68-1.59
			C83.49,95.26,83.36,95.24,83.22,95.24z M102.12,103.21c-0.53,0-1.19-0.13-1.57-0.5c-2.06-1.99-4.6-3.33-7.05-4.62
			c-1.01-0.53-2.05-1.08-3.05-1.67l-1.2-0.7c-1.59-0.93-3.24-1.89-4.82-2.92c-0.36-0.23-0.42-0.9-0.43-1.1
			c-0.02-0.43,0.06-0.72,0.24-0.87c1.54-1.28,3.29-2.6,5.32-4.04c0.43-0.3,1.23-0.03,1.56,0.21c3.09,2.24,6.64,2.73,10.84,1.48
			c0.14-0.04,0.27-0.02,0.38,0c0.03,0.01,0.07,0.01,0.11,0.02l0.21,0.02l0.08,0.19c0.76,1.74,2.13,2.94,3.46,4.11
			c0.69,0.61,1.41,1.24,2.03,1.94c0.13,0.15,0.29,0.28,0.45,0.41c0.16,0.13,0.32,0.27,0.47,0.42c2.05,2.13,2.09,2.31,1.03,4.94
			l-0.1,0.25c-0.68,1.69-2.06,1.87-3.29,2.03l-0.31,0.04c-1.25,0.18-2.63,0.29-4.24,0.34C102.2,103.21,102.16,103.21,102.12,103.21z
			 M90.04,87.39c-0.04,0-0.06,0-0.08,0.01c-2.01,1.42-3.74,2.73-5.27,3.99c-0.02,0.1,0.05,0.7,0.16,0.83
			c1.54,0.99,3.18,1.95,4.76,2.87l1.2,0.7c0.99,0.58,2.02,1.13,3.02,1.65c2.5,1.32,5.09,2.68,7.22,4.74
			c0.19,0.19,0.68,0.31,1.15,0.29c1.58-0.06,2.94-0.17,4.16-0.34l0.32-0.04c1.18-0.15,2.19-0.29,2.71-1.58l0.1-0.25
			c0.92-2.3,0.92-2.3-0.88-4.17c-0.12-0.13-0.26-0.24-0.41-0.36c-0.19-0.15-0.37-0.31-0.53-0.49c-0.6-0.67-1.27-1.26-1.97-1.88
			c-1.33-1.18-2.71-2.39-3.55-4.16c-4.46,1.28-8.2,0.76-11.47-1.62C90.51,87.47,90.2,87.39,90.04,87.39z M98.81,87.54
			c-2.68,0-6.26-1.28-7.42-2.96c-0.74-1.07-0.94-2.16-0.56-3.06c0.36-0.86,1.21-1.46,2.41-1.67c1.1-0.2,2.23-0.34,3.32-0.47
			c1.45-0.18,2.95-0.36,4.39-0.69c3.17-0.72,6.35-1.61,9.44-2.46c0.88-0.24,1.75-0.49,2.63-0.73c2.84-0.78,3.72-0.28,4.5,2.52
			c0.22,0.8,0.56,1.55,0.98,2.16c0.39,0.57,0.52,1.07,0.41,1.52c-0.12,0.45-0.48,0.82-1.11,1.13l-0.42,0.21
			c-0.37,0.19-0.76,0.39-1.16,0.55c-2.34,0.91-4.24,1.63-5.99,2.27c-0.41,0.15-0.84,0.24-1.25,0.33c-0.18,0.04-0.36,0.08-0.54,0.12
			l-0.27,0.06l-0.45-0.8l0.12-0.19c0.16-0.24,0.32-0.47,0.49-0.7c0.38-0.53,0.75-1.04,0.98-1.59c0.24-0.58,0.3-1.07,0.17-1.44
			c-0.73-0.03-1.25,0.13-1.32,0.24c-1.27,2.43-3.49,3.48-5.64,4.5c-0.49,0.23-0.99,0.47-1.47,0.71
			C100.45,87.41,99.68,87.54,98.81,87.54z M114.92,75.89c-0.44,0-0.99,0.11-1.71,0.31c-0.88,0.24-1.75,0.48-2.63,0.72
			c-3.09,0.86-6.29,1.74-9.47,2.47c-1.47,0.34-2.99,0.52-4.46,0.71c-1.08,0.13-2.2,0.27-3.28,0.47c-0.94,0.17-1.61,0.61-1.87,1.24
			c-0.28,0.67-0.1,1.51,0.49,2.37c1.32,1.92,6.69,3.34,8.7,2.3c0.49-0.25,0.99-0.49,1.49-0.73c2.14-1.01,4.15-1.96,5.31-4.18
			c0.33-0.63,1.56-0.68,2.24-0.61l0.19,0.02l0.09,0.17c0.33,0.6,0.32,1.36-0.06,2.24c-0.26,0.63-0.67,1.19-1.06,1.74
			c-0.1,0.14-0.2,0.27-0.29,0.41c0.07-0.01,0.14-0.03,0.2-0.04c0.41-0.09,0.79-0.17,1.15-0.3c1.75-0.64,3.65-1.36,5.98-2.27
			c0.37-0.14,0.72-0.32,1.09-0.52l0.43-0.22c0.43-0.21,0.67-0.43,0.73-0.66c0.06-0.23-0.04-0.54-0.3-0.93
			c-0.46-0.68-0.83-1.5-1.07-2.38C116.34,76.53,115.95,75.89,114.92,75.89z"/>
	</g>
	<g>
		<path class="st0" d="M107.46,190.73l-82.36-82.36L107.46,26l82.36,82.36L107.46,190.73z M29.94,108.36l77.51,77.51l77.51-77.51
			l-77.51-77.51L29.94,108.36z"/>
	</g>
</g>
</svg>
